<?xml version="1.0" standalone="no"?>
<!DOCTYPE svg PUBLIC "-//W3C//DTD SVG 20010904//EN"
 "http://www.w3.org/TR/2001/REC-SVG-20010904/DTD/svg10.dtd">
<svg version="1.0" xmlns="http://www.w3.org/2000/svg"
 width="1280.000000pt" height="581.000000pt" viewBox="0 0 1280.000000 581.000000"
 preserveAspectRatio="xMidYMid meet">

<g transform="translate(0.000000,581.000000) scale(0.100000,-0.100000)"
fill="#000000" stroke="none">
<path d="M1850 5694 c-8 -1 -62 -10 -120 -19 -113 -18 -144 -30 -175 -66 -20
-24 -20 -24 0 -8 35 29 78 46 145 58 36 6 101 17 145 25 44 7 67 14 50 14 -16
0 -37 -2 -45 -4z"/>
<path d="M1821 5646 c-36 -6 -66 -16 -68 -22 -3 -8 9 -9 39 -3 24 5 60 11 81
14 20 3 37 10 37 15 0 11 -2 11 -89 -4z"/>
<path d="M1616 5600 c-47 -18 -106 -64 -106 -82 0 -5 15 2 33 15 35 27 91 54
121 59 22 3 35 28 14 28 -7 -1 -35 -10 -62 -20z"/>
<path d="M2335 5610 c-9 -15 4 -30 26 -30 12 0 19 7 19 20 0 21 -33 29 -45 10z"/>
<path d="M3110 5505 c0 -96 3 -115 15 -115 12 0 15 19 15 115 0 96 -3 115 -15
115 -12 0 -15 -19 -15 -115z"/>
<path d="M3360 5506 c0 -111 0 -114 23 -114 12 0 32 -3 44 -7 33 -11 73 33 73
80 0 66 -37 103 -84 85 -25 -9 -26 -8 -26 30 0 29 -4 40 -15 40 -12 0 -15 -19
-15 -114z m108 -4 c11 -33 -2 -88 -24 -96 -31 -12 -54 12 -54 57 0 46 7 61 30
69 23 8 38 -1 48 -30z"/>
<path d="M3700 5505 c0 -96 3 -115 15 -115 12 0 15 19 15 115 0 96 -3 115 -15
115 -12 0 -15 -19 -15 -115z"/>
<path d="M9684 5500 c0 -69 1 -97 3 -62 2 34 2 90 0 125 -2 34 -3 6 -3 -63z"/>
<path d="M2030 5501 c0 -104 1 -111 20 -111 16 0 20 7 20 35 0 32 3 35 40 45
42 11 60 33 60 72 0 43 -22 61 -84 66 l-56 4 0 -111z m88 38 c2 -17 -3 -29
-13 -33 -25 -9 -35 1 -35 35 0 26 3 30 23 27 15 -2 23 -11 25 -29z"/>
<path d="M2943 5600 c-47 -19 -66 -99 -39 -165 18 -41 71 -62 126 -48 34 9 35
11 38 61 l3 52 -40 0 c-23 0 -41 -4 -41 -10 0 -5 11 -10 25 -10 22 0 25 -4 25
-34 0 -28 -4 -34 -24 -38 -31 -6 -81 15 -90 37 -15 40 -6 96 20 122 21 21 32
25 65 20 21 -3 41 -1 44 3 12 19 -70 27 -112 10z"/>
<path d="M2210 5475 c0 -78 2 -85 20 -85 17 0 20 7 20 49 0 51 17 81 46 81 8
0 14 9 14 20 0 23 -28 27 -49 8 -11 -10 -14 -10 -18 0 -3 6 -11 12 -19 12 -11
0 -14 -18 -14 -85z"/>
<path d="M2340 5475 c0 -78 2 -85 20 -85 18 0 20 7 20 85 0 78 -2 85 -20 85
-18 0 -20 -7 -20 -85z"/>
<path d="M2430 5475 c0 -78 2 -85 20 -85 17 0 20 7 20 43 0 60 10 87 30 87 23
0 30 -19 30 -81 0 -42 3 -49 20 -49 15 0 20 7 20 28 0 15 3 44 7 65 5 31 9 38
27 35 18 -3 21 -11 24 -65 3 -55 6 -63 22 -63 18 0 20 7 20 75 0 71 -2 76 -25
87 -19 8 -31 8 -50 0 -19 -9 -31 -9 -50 0 -19 8 -32 8 -52 -1 -19 -9 -29 -9
-31 -2 -2 6 -10 11 -18 11 -11 0 -14 -18 -14 -85z"/>
<path d="M2735 5535 c-44 -43 -30 -126 23 -146 37 -14 92 -3 92 19 0 13 -9 17
-42 17 -33 0 -43 4 -46 18 -3 14 4 17 47 17 50 0 51 1 51 29 0 35 -40 71 -77
71 -13 0 -35 -11 -48 -25z m85 -35 c0 -6 -13 -10 -30 -10 -30 0 -43 24 -17 33
15 5 47 -10 47 -23z"/>
<path d="M3230 5553 c-36 -13 -50 -36 -50 -84 0 -39 4 -51 26 -68 35 -27 59
-26 89 4 58 57 7 174 -65 148z m60 -83 c0 -40 -4 -51 -21 -60 -27 -15 -47 -6
-60 26 -22 58 18 116 64 92 13 -6 17 -21 17 -58z"/>
<path d="M3562 5549 c-30 -12 -19 -31 11 -20 27 10 57 -3 57 -24 0 -8 -12 -17
-27 -21 -59 -12 -73 -22 -73 -53 0 -37 30 -56 68 -45 15 4 33 6 40 5 9 -1 12
19 12 74 0 72 -1 76 -26 85 -30 12 -32 12 -62 -1z m68 -98 c0 -25 -28 -53 -49
-49 -24 5 -27 55 -4 61 39 10 53 7 53 -12z"/>
<path d="M10063 5510 c0 -30 2 -43 4 -27 2 15 2 39 0 55 -2 15 -4 2 -4 -28z"/>
<path d="M9831 5503 c1 -27 4 -38 6 -26 2 13 13 24 26 26 l22 4 -22 2 c-13 0
-23 7 -23 15 0 8 10 17 23 19 19 4 18 4 -5 6 -27 1 -28 -1 -27 -46z"/>
<path d="M10203 5505 c0 -27 2 -38 4 -22 2 15 2 37 0 50 -2 12 -4 0 -4 -28z"/>
<path d="M11153 5533 c9 -2 25 -2 35 0 9 3 1 5 -18 5 -19 0 -27 -2 -17 -5z"/>
<path d="M9937 5523 c6 -4 13 -22 16 -38 4 -27 5 -27 3 4 0 21 -7 36 -16 38
-10 3 -11 2 -3 -4z"/>
<path d="M9996 5521 c-4 -5 4 -7 15 -4 16 4 20 2 17 -8 -3 -8 -12 -13 -20 -13
-8 1 -15 -4 -16 -10 -7 -52 -6 -61 11 -64 23 -5 47 15 40 34 -3 8 -15 14 -27
15 -21 0 -21 0 2 11 28 14 30 48 3 48 -11 0 -22 -4 -25 -9z m39 -76 c0 -5 -10
-11 -22 -13 -16 -2 -23 2 -23 13 0 11 7 15 23 13 12 -2 22 -7 22 -13z"/>
<path d="M10103 5495 c0 -22 2 -30 4 -17 2 12 2 30 0 40 -3 9 -5 -1 -4 -23z"/>
<path d="M10134 5518 c-4 -6 2 -17 12 -25 10 -8 18 -19 16 -24 -1 -6 3 -7 9
-3 9 5 6 12 -9 25 -27 21 -27 26 -4 32 15 4 15 5 0 6 -9 0 -20 -4 -24 -11z"/>
<path d="M10220 5526 c0 -2 7 -7 16 -10 8 -3 12 -2 9 4 -6 10 -25 14 -25 6z"/>
<path d="M11088 5523 c7 -3 16 -2 19 1 4 3 -2 6 -13 5 -11 0 -14 -3 -6 -6z"/>
<path d="M9905 5510 c-3 -5 -1 -10 4 -10 6 0 11 5 11 10 0 6 -2 10 -4 10 -3 0
-8 -4 -11 -10z"/>
<path d="M11010 5510 c-18 -12 -2 -12 25 0 13 6 15 9 5 9 -8 0 -22 -4 -30 -9z"/>
<path d="M11150 5500 l-25 -8 25 0 c14 0 39 4 55 8 l30 8 -30 0 c-16 0 -41 -4
-55 -8z"/>
<path d="M10980 5457 c-24 -13 -45 -28 -48 -35 -2 -7 13 -1 33 13 21 14 44 25
51 25 8 0 14 5 14 10 0 13 -1 13 -50 -13z"/>
<path d="M1810 5399 c-19 -15 -30 -29 -25 -29 14 0 71 47 65 53 -3 3 -21 -8
-40 -24z"/>
<path d="M9868 5363 c94 -2 250 -2 345 0 94 1 17 3 -173 3 -190 0 -267 -2
-172 -3z"/>
<path d="M11154 5314 c-18 -14 -18 -15 4 -4 12 6 22 13 22 15 0 8 -5 6 -26
-11z"/>
<path d="M0 4940 l0 -220 2083 -3 2082 -2 -2082 -3 -2083 -2 0 -1460 0 -1460
5500 0 5500 0 0 -762 c0 -476 4 -776 10 -797 11 -39 52 -86 92 -107 40 -21
1456 -21 1496 0 41 21 81 68 92 107 6 21 10 328 10 796 l0 763 50 0 50 0 0
1460 0 1459 -127 4 -128 3 128 2 127 2 0 220 0 220 -640 0 -640 0 0 -219 0
-220 48 -4 c26 -2 -266 -3 -648 -3 -382 0 -602 2 -487 3 l207 3 0 220 0 220
-5320 0 -5320 0 0 -220z m1560 56 c0 -8 10 -16 23 -18 14 -2 23 -11 25 -26 5
-31 -15 -52 -44 -50 -22 2 -24 7 -24 55 0 29 5 53 10 53 6 0 10 -6 10 -14z
m1900 -16 c10 0 25 -9 33 -20 l14 -21 6 21 c7 26 50 24 55 -2 3 -13 -3 -18
-22 -18 -14 0 -26 -4 -26 -10 0 -5 12 -10 26 -10 14 0 23 -4 19 -10 -9 -15
-32 -12 -50 7 -16 15 -18 15 -27 0 -5 -10 -19 -16 -33 -15 -23 2 -25 6 -24 58
1 30 3 47 6 38 2 -10 13 -18 23 -18z m1393 -2 c18 -2 22 -10 22 -38 0 -32 -2
-35 -30 -35 -28 0 -30 3 -33 39 -4 43 8 84 15 54 2 -9 14 -18 26 -20z m597 22
c0 -5 -3 -9 -7 -9 -5 1 -15 1 -23 0 -13 -1 -13 -2 0 -11 10 -6 11 -10 3 -10
-8 0 -13 -14 -13 -37 0 -23 -4 -33 -9 -27 -12 12 -16 64 -6 87 8 18 55 24 55
7z m2200 -4 c0 -8 10 -16 23 -18 18 -2 23 -10 25 -40 2 -21 -1 -38 -7 -38 -5
0 -11 15 -13 33 -2 17 -7 32 -13 32 -5 0 -11 -15 -13 -32 -5 -54 -22 -37 -22
22 0 30 5 55 10 55 6 0 10 -6 10 -14z m-6135 -42 c9 -25 14 -48 11 -51 -3 -3
-8 2 -12 11 -8 21 -40 21 -53 -1 -6 -10 -11 -12 -11 -6 0 19 31 93 40 93 4 0
15 -21 25 -46z m375 5 c0 -36 2 -40 23 -37 17 2 23 11 28 43 l6 40 2 -47 c1
-44 -1 -48 -26 -54 -19 -5 -30 -2 -40 11 -15 22 -18 85 -3 85 6 0 10 -18 10
-41z m1009 27 c17 -20 10 -67 -11 -79 -27 -18 -68 7 -68 41 0 15 5 33 12 40
16 16 53 15 67 -2z m240 -23 l14 -37 14 37 c21 52 33 46 31 -15 -1 -41 -2 -45
-5 -18 l-5 35 -18 -35 -18 -35 -16 35 c-15 34 -15 34 -16 8 0 -15 -4 -30 -10
-33 -6 -4 -10 13 -10 44 0 62 20 69 39 14z m1390 0 l14 -37 14 37 c21 52 33
46 32 -15 -1 -47 -2 -49 -8 -18 l-6 35 -12 -32 c-7 -18 -15 -33 -18 -33 -3 0
-12 15 -20 33 l-14 32 -1 -33 c0 -20 -4 -31 -10 -27 -5 3 -10 26 -10 51 0 55
21 59 39 7z m602 30 c0 -5 2 -21 4 -38 5 -36 -10 -55 -41 -55 -22 0 -24 4 -24
50 0 49 1 50 30 50 17 0 30 -3 31 -7z m1054 0 c-31 -8 -42 -23 -17 -23 12 0
22 -4 22 -10 0 -5 -9 -10 -20 -10 -11 0 -20 -7 -20 -15 0 -8 9 -15 20 -15 11
0 20 -4 20 -10 0 -5 -11 -10 -25 -10 -23 0 -25 3 -25 50 0 50 0 50 33 49 21
-1 25 -3 12 -6z m1175 -37 c0 -25 -4 -48 -10 -51 -6 -4 -10 13 -10 44 0 28 5
51 10 51 6 0 10 -20 10 -44z m1295 12 l20 -33 3 33 c2 17 7 32 13 32 12 0 12
-87 0 -95 -6 -3 -21 11 -35 32 l-26 38 0 -38 c0 -23 -4 -36 -10 -32 -5 3 -10
26 -10 51 0 53 17 58 45 12z m-6837 13 c11 -7 11 -9 -2 -14 -20 -8 -20 -21 0
-42 18 -18 13 -30 -9 -22 -8 3 -17 22 -19 42 -5 46 2 54 30 36z m3722 -3 c33
1 34 1 10 -9 l-25 -11 23 -9 c15 -6 22 -15 20 -26 -3 -14 -13 -18 -48 -18 -44
0 -45 1 -51 37 -7 42 -2 52 20 42 9 -4 32 -6 51 -6z m964 -1 c23 0 31 -2 19
-4 -29 -5 -30 -19 -2 -26 13 -4 20 -12 17 -24 -3 -14 -13 -18 -48 -18 -44 0
-45 1 -51 37 -6 40 -2 51 14 41 6 -3 29 -6 51 -6z m1238 -5 c-14 -4 -16 -52
-2 -52 6 0 10 -5 10 -11 0 -27 -26 1 -31 34 -7 42 -4 48 19 39 10 -4 12 -7 4
-10z m-6057 -26 c0 -38 -28 -57 -51 -34 -11 11 -15 25 -10 43 5 21 12 26 34
23 22 -2 27 -8 27 -32z m51 -26 c14 0 17 8 17 43 0 9 4 17 8 17 5 0 9 -17 9
-39 0 -35 -2 -38 -27 -37 -26 1 -28 5 -29 41 -1 32 -1 34 3 8 3 -20 10 -33 19
-33z m272 53 c-22 -6 -23 -12 -1 -28 21 -16 10 -45 -17 -45 -27 0 -26 18 3 23
l22 4 -22 8 c-34 11 -30 45 5 44 16 -1 20 -3 10 -6z m192 -15 l-20 -22 -22 22
-22 22 42 0 43 0 -21 -22z m760 -33 c8 0 18 13 21 30 6 28 7 27 8 -11 1 -39
-1 -41 -26 -40 -25 1 -28 5 -30 41 -1 35 -1 36 5 10 4 -17 14 -30 22 -30z m88
44 c-10 -5 -18 -21 -18 -34 0 -13 -4 -27 -10 -30 -6 -4 -10 10 -10 34 0 38 2
41 28 41 23 -1 24 -2 10 -11z m230 -1 c19 -19 14 -28 -13 -28 -14 0 -25 -4
-25 -10 0 -5 9 -10 20 -10 11 0 20 -4 20 -10 0 -14 -33 -13 -48 2 -13 13 -16
50 -5 61 10 11 38 8 51 -5z m130 -32 c2 -25 0 -36 -7 -31 -6 3 -11 20 -11 36
0 42 -24 32 -29 -12 l-4 -34 -6 34 c-8 45 -31 54 -31 12 0 -16 -4 -33 -10 -36
-6 -4 -10 10 -10 34 l0 41 53 -3 52 -2 3 -39z m210 33 c-11 -6 -18 -22 -18
-40 0 -18 -4 -28 -10 -24 -5 3 -10 22 -10 41 0 31 3 34 28 34 23 -1 24 -2 10
-11z m53 4 l-25 -5 24 -18 c27 -20 22 -50 -10 -50 -27 0 -26 18 3 23 l22 4
-22 8 c-34 11 -30 45 5 44 26 -2 26 -2 3 -6z m201 -15 l-22 -22 -22 22 -22 22
44 0 44 0 -22 -22z m796 10 c19 -19 14 -28 -13 -28 -14 0 -25 -4 -25 -10 0 -5
9 -10 20 -10 11 0 20 -4 20 -10 0 -14 -33 -13 -48 2 -13 13 -16 50 -5 61 10
11 38 8 51 -5z m130 -32 c2 -25 0 -36 -7 -31 -6 3 -11 20 -11 36 0 42 -24 32
-29 -12 l-4 -34 -6 33 c-7 39 -25 47 -29 12 -6 -45 -22 -46 -22 -1 l0 42 53
-3 52 -3 3 -39z m160 22 c3 -14 -3 -18 -24 -18 -30 0 -23 -15 11 -22 18 -5 18
-6 3 -13 -28 -12 -48 2 -48 33 0 16 3 32 7 36 13 13 48 1 51 -16z m50 9 c-9
-7 -18 -26 -21 -42 -3 -24 -4 -21 -6 13 -1 37 1 42 22 42 20 -1 20 -2 5 -13z
m200 1 c19 -19 14 -28 -13 -28 -14 0 -25 -4 -25 -10 0 -5 9 -10 20 -10 11 0
20 -4 20 -10 0 -14 -33 -13 -48 2 -13 13 -16 50 -5 61 10 11 38 8 51 -5z m90
-16 c2 -13 0 -31 -4 -40 -6 -13 -9 -9 -13 16 -7 39 -25 47 -29 12 -6 -45 -22
-46 -22 -1 0 42 0 42 33 39 25 -2 33 -8 35 -26z m70 16 c19 -19 14 -28 -13
-28 -14 0 -25 -4 -25 -10 0 -5 9 -10 20 -10 11 0 20 -4 20 -10 0 -15 -36 -12
-50 5 -30 36 15 86 48 53z m79 -50 c-2 -13 -4 -3 -4 22 0 25 2 35 4 23 2 -13
2 -33 0 -45z m780 35 l10 -28 8 28 c6 23 25 39 25 22 0 -12 -29 -75 -35 -75
-6 0 -35 63 -35 75 0 16 18 1 27 -22z m111 5 c3 -14 -3 -18 -23 -18 -15 0 -24
-4 -20 -10 3 -5 15 -10 26 -10 11 0 17 -4 14 -10 -11 -17 -44 -11 -55 10 -15
28 4 62 33 58 12 -2 23 -11 25 -20z m80 -22 c2 -25 0 -36 -7 -31 -6 3 -11 20
-11 36 0 42 -23 33 -31 -12 -6 -33 -6 -33 -8 9 -1 42 0 43 27 40 24 -3 27 -8
30 -42z m294 22 l-22 -22 -22 22 -22 22 44 0 44 0 -22 -22z m726 -22 c2 -25 0
-36 -7 -31 -6 3 -11 20 -11 36 0 42 -23 33 -31 -12 -6 -33 -6 -33 -8 9 -1 42
0 43 27 40 24 -3 27 -8 30 -42z m55 37 c-28 -5 -30 -19 -3 -26 23 -6 27 -35 5
-43 -8 -4 -23 -3 -32 2 -15 6 -14 8 6 12 l25 4 -23 18 c-29 21 -20 41 17 39
24 -2 24 -2 5 -6z m44 -55 c-2 -13 -4 -3 -4 22 0 25 2 35 4 23 2 -13 2 -33 0
-45z m83 48 c0 -8 -9 -21 -20 -29 l-21 -14 21 -6 c34 -9 22 -42 -15 -42 -29 0
-30 1 -28 45 1 25 2 48 2 53 2 14 61 7 61 -7z m178 7 c-24 -6 -23 -15 3 -31
16 -11 18 -16 9 -28 -14 -16 -50 -19 -50 -4 0 6 10 10 23 10 l22 0 -24 19
c-27 21 -21 42 12 40 17 -1 18 -2 5 -6z m194 -15 l-22 -22 -22 22 -22 22 44 0
44 0 -22 -22z m778 18 c0 -2 3 -11 6 -20 5 -12 0 -16 -20 -16 -35 0 -33 -18 2
-22 24 -4 25 -5 8 -13 -37 -16 -71 29 -46 60 11 13 50 21 50 11z m36 -18 l7
-23 8 23 c9 25 29 30 29 7 0 -8 5 -15 10 -15 6 0 10 6 10 13 0 9 14 14 43 14
23 0 32 -2 20 -4 -28 -5 -30 -19 -3 -26 23 -6 27 -35 5 -43 -8 -4 -23 -3 -32
1 -16 7 -15 9 6 14 l24 7 -25 16 c-25 17 -26 17 -32 -13 -7 -37 -22 -37 -31
-1 l-7 27 -13 -30 c-9 -22 -14 -26 -19 -15 -21 53 -25 70 -16 70 5 0 12 -10
16 -22z m334 19 c0 -2 -8 -11 -18 -21 -18 -15 -20 -15 -42 4 l-23 20 41 0 c23
0 42 -2 42 -3z m-3967 -264 c-182 -2 -484 -2 -670 0 -186 1 -36 2 332 2 369 0
521 -1 338 -2z m590 0 c-45 -2 -122 -2 -170 0 -48 1 -11 3 82 3 94 0 133 -2
88 -3z m1365 0 c-236 -2 -620 -2 -855 0 -236 1 -43 2 427 2 470 0 663 -1 428
-2z m685 0 c-45 -2 -122 -2 -170 0 -48 1 -11 3 82 3 94 0 133 -2 88 -3z m190
0 c-18 -2 -48 -2 -65 0 -18 2 -4 4 32 4 36 0 50 -2 33 -4z m74 1 c-3 -3 -12
-4 -19 -1 -8 3 -5 6 6 6 11 1 17 -2 13 -5z m116 -1 c-18 -2 -48 -2 -65 0 -18
2 -4 4 32 4 36 0 50 -2 33 -4z m110 0 c-13 -2 -33 -2 -45 0 -13 2 -3 4 22 4
25 0 35 -2 23 -4z m229 0 c-40 -2 -103 -2 -140 0 -37 2 -4 3 73 3 77 0 107 -2
67 -3z m261 0 c-29 -2 -77 -2 -105 0 -29 2 -6 3 52 3 58 0 81 -1 53 -3z m130
0 c-7 -2 -21 -2 -30 0 -10 3 -4 5 12 5 17 0 24 -2 18 -5z m145 0 c-21 -2 -57
-2 -80 0 -24 2 -7 4 37 4 44 0 63 -2 43 -4z m102 3 c0 -8 -51 -13 -56 -5 -3 5
9 9 25 9 17 0 31 -2 31 -4z m83 -3 c-13 -2 -33 -2 -45 0 -13 2 -3 4 22 4 25 0
35 -2 23 -4z m450 0 c-79 -2 -207 -2 -285 0 -79 1 -15 3 142 3 157 0 221 -2
143 -3z m174 1 c-3 -3 -12 -4 -19 -1 -8 3 -5 6 6 6 11 1 17 -2 13 -5z m122 1
c-8 -8 -99 -14 -99 -6 0 3 23 8 52 9 28 1 49 0 47 -3z m217 -2 c-6 -7 -158 -4
-165 2 -2 3 35 5 83 4 48 -1 85 -3 82 -6z m1461 1 c-3 -3 -12 -4 -19 -1 -8 3
-5 6 6 6 11 1 17 -2 13 -5z m156 -1 c-18 -2 -48 -2 -65 0 -18 2 -4 4 32 4 36
0 50 -2 33 -4z m380 0 c-62 -2 -165 -2 -230 0 -65 1 -14 3 112 3 127 0 180 -2
118 -3z m235 0 c-21 -2 -57 -2 -80 0 -24 2 -7 4 37 4 44 0 63 -2 43 -4z m79 1
c-3 -3 -12 -4 -19 -1 -8 3 -5 6 6 6 11 1 17 -2 13 -5z m-10057 -744 l0 -150
-47 -1 c-27 -1 -67 -1 -90 -2 -106 -3 -150 145 -62 207 27 19 100 21 117 4 9
-9 12 0 12 40 l0 52 35 0 35 0 0 -150z m4770 106 l0 -44 46 6 c86 9 114 -25
114 -143 l0 -75 -35 0 -35 0 0 61 c0 71 -12 99 -43 99 -37 0 -47 -19 -47 -92
l0 -68 -35 0 -35 0 0 150 0 150 35 0 c35 0 35 0 35 -44z m-5270 -1 c0 -23 -4
-25 -45 -25 l-45 0 0 -115 0 -115 -35 0 -35 0 0 115 0 115 -49 0 c-45 0 -48 2
-48 25 l0 25 128 0 129 0 0 -25z m1650 0 c0 -23 -3 -25 -50 -25 l-50 0 3 -112
2 -113 -37 -3 -38 -3 0 115 0 116 -45 0 c-41 0 -45 2 -45 25 l0 25 130 0 130
0 0 -25z m2560 0 c0 -23 -4 -25 -45 -25 l-45 0 0 -115 0 -115 -40 0 -40 0 0
115 0 115 -45 0 c-41 0 -45 2 -45 25 l0 25 130 0 130 0 0 -25z m890 -10 c0
-20 5 -25 25 -25 21 0 25 -5 25 -30 0 -25 -4 -30 -25 -30 -24 0 -25 -3 -25
-55 0 -54 1 -55 29 -55 21 0 30 -6 34 -22 8 -29 3 -33 -48 -33 -66 0 -85 23
-85 102 0 56 -2 63 -20 63 -15 0 -20 7 -20 26 0 17 6 28 20 31 13 3 20 14 20
29 0 21 5 24 35 24 31 0 35 -3 35 -25z m3206 -44 c104 -22 200 -43 214 -49
l25 -10 -37 -18 c-41 -19 -8 -26 -330 67 -44 13 -68 25 -68 34 0 8 2 15 4 15
2 0 88 -18 192 -39z m-8110 -15 c89 -89 -2 -224 -125 -187 -54 16 -81 52 -81
108 0 38 5 50 34 79 30 30 40 34 86 34 46 0 56 -4 86 -34z m513 19 c34 -17 41
-38 41 -133 l0 -73 -42 0 c-24 0 -62 -1 -85 -2 -51 -1 -83 23 -83 64 0 40 41
69 97 69 46 0 54 13 20 34 -12 8 -26 7 -48 -1 -35 -13 -59 -4 -59 24 0 32 109
44 159 18z m159 -57 c25 -59 32 -69 38 -53 4 11 18 44 30 73 20 46 26 52 53
52 17 0 31 -2 31 -5 0 -3 -23 -60 -51 -128 -61 -145 -81 -170 -139 -170 -51 0
-66 13 -51 42 9 16 18 19 41 14 47 -9 46 15 -4 130 -25 58 -46 108 -46 111 0
3 15 6 34 6 32 0 34 -3 64 -72z m963 49 c58 -39 65 -118 14 -170 -92 -91 -255
11 -201 125 32 68 121 89 187 45z m274 8 c17 -11 24 -10 40 1 31 23 92 18 120
-11 23 -22 25 -32 25 -110 l0 -85 -30 0 c-30 0 -30 1 -30 54 0 75 -13 106 -44
106 -34 0 -46 -26 -46 -99 l0 -61 -35 0 -35 0 0 64 c0 79 -6 96 -34 96 -36 0
-46 -20 -46 -92 l0 -68 -35 0 -35 0 0 109 0 109 83 0 c52 0 90 -4 102 -13z
m422 -5 c52 -31 65 -116 24 -164 -61 -71 -196 -46 -218 42 -25 102 99 181 194
122z m153 10 c0 -7 6 -7 19 0 11 5 29 10 40 10 16 0 21 -6 21 -29 0 -24 -5
-30 -30 -35 -36 -7 -50 -36 -50 -107 l0 -49 -35 0 -35 0 0 103 c0 57 3 107 7
110 10 11 63 8 63 -3z m176 -1 c4 -8 9 -8 17 0 6 6 21 11 34 11 19 0 23 -5 23
-28 0 -23 -6 -30 -32 -37 -33 -10 -33 -10 -36 -82 l-3 -73 -34 0 -35 0 0 110
0 110 29 0 c17 0 33 -5 37 -11z m306 -28 c80 -90 -18 -220 -137 -181 -50 17
-75 53 -75 110 0 43 4 52 37 80 33 30 40 32 91 28 47 -4 60 -10 84 -37z m118
-27 c12 -36 25 -62 28 -59 4 3 16 32 28 63 18 51 24 57 51 60 30 3 32 1 55
-69 l24 -73 25 70 c22 65 26 69 57 72 l32 3 -38 -108 -39 -108 -36 -3 c-35 -3
-36 -3 -58 58 -12 33 -23 59 -25 57 -2 -2 -12 -28 -23 -58 -17 -53 -19 -54
-56 -54 l-37 0 -34 94 c-42 115 -42 121 -5 121 27 0 31 -5 51 -66z m1132 27
c43 -49 35 -131 -17 -165 -86 -57 -201 -2 -199 95 2 73 50 111 133 106 46 -3
59 -9 83 -36z m216 27 c9 -9 12 -9 12 0 0 7 14 12 35 12 l35 0 0 -109 c0 -123
-8 -152 -45 -177 -31 -21 -118 -23 -162 -5 -29 12 -31 15 -21 37 8 17 17 23
27 18 40 -16 98 -16 114 1 23 22 21 38 -2 30 -43 -13 -59 -12 -97 4 -72 32
-86 111 -30 167 28 28 41 34 78 34 24 0 49 -5 56 -12z m301 -2 c30 -16 51 -53
51 -91 0 -23 -4 -25 -55 -26 -30 -1 -59 -3 -65 -4 -5 -1 -17 -3 -26 -4 -13 -1
-14 -4 -4 -16 14 -17 62 -20 90 -5 14 8 21 5 33 -13 14 -21 13 -24 -3 -35 -54
-33 -143 -21 -180 25 -40 51 -22 140 35 171 28 16 91 15 124 -2z m737 -20 c46
-46 48 -91 3 -100 -17 -3 -54 -6 -81 -6 -44 0 -49 -2 -38 -15 14 -17 75 -20
85 -5 10 16 23 12 36 -11 17 -34 -10 -53 -75 -53 -67 -1 -105 23 -125 80 -12
36 -12 44 4 77 22 46 56 66 114 67 36 0 49 -6 77 -34z m139 24 c4 -7 12 -7 25
0 34 18 50 12 50 -20 0 -23 -5 -30 -19 -30 -37 0 -51 -27 -51 -96 l0 -64 -35
0 -35 0 0 110 0 110 29 0 c17 0 33 -5 36 -10z m-4557 -68 c42 -53 -37 -113
-83 -62 -22 24 -14 63 17 77 26 12 48 7 66 -15z m2560 0 c42 -53 -37 -113 -83
-62 -22 25 -13 68 18 79 26 10 47 4 65 -17z m4388 -31 c27 -11 75 -29 107 -41
31 -12 59 -25 61 -29 2 -3 -6 -18 -19 -33 -22 -25 -26 -27 -57 -16 -38 13
-129 70 -144 89 -6 8 -14 22 -17 32 -8 22 8 22 69 -2z m532 -12 c45 -13 82
-27 82 -31 0 -4 -5 -8 -12 -8 -6 0 -3 -6 7 -14 14 -10 27 -11 49 -5 26 8 43 3
105 -27 81 -40 70 -40 230 -8 29 6 30 5 23 -22 -6 -22 -21 -35 -59 -54 -45
-22 -50 -27 -41 -44 16 -28 5 -132 -16 -155 -17 -18 -17 -22 -2 -43 18 -25 21
-64 6 -73 -5 -3 -20 3 -32 14 -35 33 -56 35 -91 9 -18 -13 -45 -30 -61 -38
-25 -13 -26 -16 -11 -25 10 -5 30 -20 44 -33 l26 -22 -28 -21 c-15 -11 -24
-26 -20 -32 4 -7 0 -8 -13 -4 -18 7 -18 6 -1 -7 18 -14 24 -32 7 -21 -5 3 -10
2 -10 -3 0 -5 -15 -17 -32 -25 l-33 -16 33 -7 c17 -4 32 -9 32 -13 -1 -14
-110 -71 -137 -70 l-28 0 25 11 25 10 -24 9 c-14 6 -50 10 -80 10 -39 1 -63 7
-80 20 -13 10 -31 19 -39 19 -8 0 -44 16 -79 35 -35 19 -76 35 -91 35 -54 0
-108 50 -78 72 5 3 -3 23 -19 43 -32 43 -67 147 -58 172 5 14 8 13 14 -6 12
-31 35 -36 62 -14 l25 19 -34 22 c-19 12 -34 26 -34 32 0 5 15 21 34 35 37 28
51 26 102 -11 l30 -23 68 23 c98 35 101 41 28 73 -34 14 -62 30 -62 33 0 4 24
18 54 30 41 16 58 19 72 11 11 -6 47 -22 82 -36 l63 -26 77 22 c42 12 79 23
81 25 4 4 -46 26 -112 50 -42 15 -48 20 -44 41 4 20 1 23 -27 22 -17 -1 -42
-4 -55 -8 -28 -8 -143 28 -138 43 4 12 77 35 97 31 8 -2 52 -14 98 -26z m-281
-81 c37 -13 42 -23 16 -31 -10 -3 -30 -14 -45 -23 -22 -15 -31 -16 -54 -5
l-27 12 28 29 c32 34 36 35 82 18z m-232 -77 c11 -5 35 -22 54 -38 34 -29 34
-29 16 -56 -9 -15 -21 -27 -25 -27 -11 0 -94 87 -102 108 -4 9 -7 25 -7 36 -1
17 0 17 22 2 12 -9 31 -20 42 -25z m-8077 -139 c2 -7 -3 -12 -12 -12 -9 0 -16
7 -16 16 0 17 22 14 28 -4z m72 -82 c0 -82 -3 -100 -15 -100 -12 0 -15 18 -15
100 0 82 3 100 15 100 12 0 15 -18 15 -100z m160 2 l0 -99 -49 -2 c-34 -1 -54
4 -65 15 -21 20 -20 73 0 103 14 20 23 22 55 18 39 -5 39 -5 39 29 0 19 5 34
10 34 6 0 10 -39 10 -98z m70 83 c0 -8 -7 -15 -15 -15 -16 0 -20 12 -8 23 11
12 23 8 23 -8z m3220 -19 c0 -34 0 -35 36 -29 48 8 64 -13 64 -84 0 -40 -4
-53 -15 -53 -12 0 -15 13 -15 55 0 42 -4 57 -16 62 -31 12 -49 -11 -52 -66 -2
-36 -7 -51 -18 -51 -11 0 -14 19 -14 100 0 82 3 100 15 100 10 0 15 -10 15
-34z m-3762 -9 c2 -16 -1 -34 -7 -41 -8 -10 -7 -17 4 -26 8 -7 15 -23 15 -36
0 -38 -26 -54 -86 -54 l-54 0 0 95 0 96 63 -3 c60 -3 62 -4 65 -31z m1324 8
c9 -20 8 -28 -6 -44 -15 -16 -15 -19 -1 -31 18 -15 20 -61 3 -78 -7 -7 -38
-12 -70 -12 l-58 0 0 95 0 95 60 0 c55 0 62 -2 72 -25z m838 15 c0 -5 -18 -10
-40 -10 -39 0 -40 -1 -40 -35 0 -34 1 -35 40 -35 22 0 40 -4 40 -10 0 -5 -18
-10 -40 -10 l-40 0 0 -40 c0 -29 -4 -40 -15 -40 -12 0 -15 17 -15 95 l0 95 55
0 c30 0 55 -4 55 -10z m990 0 c0 -5 -13 -10 -30 -10 l-30 0 0 -85 c0 -69 -3
-85 -15 -85 -12 0 -15 16 -15 85 l0 85 -30 0 c-16 0 -30 5 -30 10 0 6 32 10
75 10 43 0 75 -4 75 -10z m-1600 -25 c0 -8 9 -15 20 -15 11 0 20 -4 20 -10 0
-5 -9 -10 -20 -10 -17 0 -20 -7 -20 -50 0 -43 3 -50 20 -50 11 0 20 -5 20 -11
0 -6 -14 -9 -32 -7 -32 3 -33 4 -36 58 -2 30 -8 57 -14 61 -6 4 -3 14 8 28 22
25 34 27 34 6z m100 0 c0 -8 9 -15 20 -15 11 0 20 -4 20 -10 0 -5 -9 -10 -19
-10 -37 0 -40 -93 -3 -98 35 -5 25 -24 -10 -20 -32 3 -33 4 -36 58 -2 30 -9
58 -15 63 -9 7 -9 10 1 14 6 2 12 11 12 19 0 8 7 14 15 14 8 0 15 -7 15 -15z
m730 0 c0 -8 9 -15 20 -15 11 0 20 -4 20 -10 0 -5 -9 -10 -20 -10 -17 0 -20
-7 -20 -46 0 -37 4 -47 20 -51 28 -7 25 -23 -5 -23 -30 0 -45 26 -45 79 0 23
-5 41 -10 41 -12 0 21 49 33 50 4 0 7 -7 7 -15z m1284 0 c-5 -11 1 -15 20 -15
14 0 26 -4 26 -10 0 -5 -11 -10 -25 -10 -24 0 -25 -2 -22 -47 4 -40 8 -49 26
-51 34 -5 24 -24 -11 -20 -32 3 -33 4 -36 58 -2 30 -9 58 -15 63 -9 7 -9 10 1
14 6 2 12 11 12 19 0 8 7 14 15 14 9 0 12 -6 9 -15z m-3592 -72 c3 -57 3 -58
33 -58 30 0 30 1 33 58 2 42 7 57 17 57 12 0 15 -15 15 -69 l0 -68 -52 -2
c-28 0 -57 4 -65 10 -19 16 -18 129 2 129 10 0 15 -15 17 -57z m168 -13 c0
-56 -3 -70 -15 -70 -12 0 -15 14 -15 70 0 56 3 70 15 70 12 0 15 -14 15 -70z
m300 0 c0 -51 -4 -70 -13 -70 -10 0 -14 18 -15 61 -2 63 2 79 19 79 5 0 9 -31
9 -70z m160 50 c5 -10 10 -41 10 -69 0 -39 -4 -51 -15 -51 -12 0 -15 13 -15
55 0 42 -4 57 -16 62 -31 12 -49 -11 -52 -66 -2 -36 -7 -51 -18 -51 -11 0 -14
15 -14 68 l0 68 55 2 c44 1 57 -2 65 -18z m170 10 c0 -5 -5 -10 -11 -10 -6 0
-8 -8 -4 -19 7 -24 -26 -61 -55 -61 -11 0 -20 -4 -20 -10 0 -5 15 -10 33 -10
18 0 38 -5 45 -12 18 -18 14 -56 -7 -68 -27 -14 -94 -13 -109 2 -16 16 -15 47
1 53 13 6 17 59 5 71 -13 12 -9 42 8 58 17 18 114 23 114 6z m200 -9 c5 -11
10 -42 10 -70 l0 -49 -57 1 c-55 2 -58 3 -61 29 -4 30 28 58 66 58 35 0 21 25
-14 26 -46 2 -50 4 -34 14 27 17 78 12 90 -9z m391 9 c12 -7 19 -21 19 -40 0
-29 -2 -30 -46 -30 -38 0 -45 -3 -42 -17 2 -13 15 -19 46 -21 56 -4 54 -22 -2
-22 -55 0 -76 19 -76 67 0 61 48 91 101 63z m351 -7 c10 -9 18 -27 18 -40 0
-21 -4 -23 -50 -23 -27 0 -50 -4 -50 -8 0 -18 26 -32 57 -32 18 0 33 -5 33
-11 0 -6 -19 -9 -47 -7 -41 3 -50 7 -61 31 -10 21 -11 35 -2 62 6 18 16 36 23
39 25 10 61 5 79 -11z m78 5 c0 -9 3 -9 12 0 15 15 48 16 48 2 0 -5 -6 -10
-14 -10 -28 0 -46 -30 -46 -76 0 -32 -4 -44 -15 -44 -12 0 -15 14 -15 70 0 56
3 70 15 70 8 0 15 -5 15 -12z m322 -45 c3 -57 3 -58 33 -58 30 0 30 1 33 58 2
42 7 57 17 57 12 0 15 -15 15 -68 l0 -69 -55 -2 c-51 -1 -56 0 -65 24 -16 41
-13 115 5 115 10 0 15 -15 17 -57z m268 -3 c0 -57 1 -60 25 -60 30 0 45 26 45
79 0 30 4 41 15 41 12 0 15 -13 14 -69 l-1 -69 -62 1 -61 2 -3 68 c-2 55 0 67
13 67 12 0 15 -13 15 -60z m230 50 c0 -6 -8 -10 -18 -10 -27 0 -42 -20 -42
-56 0 -38 -9 -64 -21 -64 -5 0 -9 31 -9 68 l0 68 45 2 c25 1 45 -3 45 -8z
m126 -15 c25 -38 12 -55 -41 -55 -46 0 -51 -4 -36 -29 6 -9 21 -12 45 -9 25 3
36 0 36 -9 0 -9 -15 -13 -44 -13 -51 0 -76 24 -76 72 0 62 83 93 116 43z m444
5 c26 -26 26 -81 1 -104 -13 -12 -32 -16 -57 -14 -50 4 -71 40 -54 93 6 18 16
36 23 39 28 11 68 5 87 -14z m180 10 c0 -5 -6 -10 -14 -10 -9 0 -12 -7 -9 -20
7 -27 -23 -60 -54 -60 -12 0 -23 -4 -23 -10 0 -5 15 -10 34 -10 31 0 66 -20
66 -38 0 -4 -7 -18 -16 -30 -11 -16 -25 -22 -54 -22 -21 0 -45 3 -54 6 -17 7
-22 49 -7 58 12 8 20 55 10 62 -13 8 -11 58 3 72 14 14 118 16 118 2z m122 -7
c10 -9 18 -27 18 -40 0 -21 -4 -23 -50 -23 -27 0 -50 -4 -50 -8 0 -18 27 -32
63 -32 23 0 36 -4 32 -10 -3 -5 -26 -10 -50 -10 -39 0 -46 3 -60 30 -37 71 40
145 97 93z m422 -5 c30 -43 21 -58 -34 -58 -27 0 -50 -4 -50 -8 0 -18 26 -32
57 -32 18 0 33 -4 33 -10 0 -5 -20 -10 -45 -10 -36 0 -47 4 -61 25 -20 30 -12
89 14 104 30 18 70 13 86 -11z m136 11 c0 -5 -6 -9 -14 -9 -28 0 -46 -30 -46
-76 0 -32 -4 -44 -15 -44 -12 0 -15 14 -15 68 l0 67 45 2 c25 1 45 -3 45 -8z
m-1235 -126 c-13 -55 -40 -59 -29 -5 4 19 13 32 21 32 11 0 13 -7 8 -27z
m1285 12 c0 -8 -7 -15 -15 -15 -8 0 -15 7 -15 15 0 8 7 15 15 15 8 0 15 -7 15
-15z m4865 -155 c-3 -5 -11 -10 -16 -10 -6 0 -7 5 -4 10 3 6 11 10 16 10 6 0
7 -4 4 -10z m1743 -20 c67 -35 67 -35 19 -64 -25 -14 -50 -26 -56 -26 -7 0
-11 23 -11 55 0 30 2 55 5 55 3 0 22 -9 43 -20z m-12468 -40 c0 -56 -1 -56
-68 -12 l-24 15 39 24 c21 12 41 23 46 23 4 0 7 -23 7 -50z m3258 -282 l-3
-223 -2 218 -3 217 -865 0 -865 0 -3 -217 -2 -218 -3 223 -2 222 875 0 875 0
-2 -222z m-1148 7 l0 -65 -33 0 c-38 0 -57 15 -57 45 0 27 18 45 47 45 16 0
23 6 23 20 0 11 5 20 10 20 6 0 10 -28 10 -65z m-267 48 c-25 -3 -33 -9 -33
-24 0 -14 7 -19 25 -19 14 0 25 -4 25 -10 0 -5 -11 -10 -25 -10 -20 0 -25 -5
-25 -25 0 -14 -4 -25 -10 -25 -6 0 -10 27 -10 60 l0 60 43 -2 c36 -1 38 -2 10
-5z m57 -3 c0 -5 -4 -10 -10 -10 -5 0 -10 5 -10 10 0 6 5 10 10 10 6 0 10 -4
10 -10z m8220 -80 c0 -89 0 -90 -25 -90 -23 0 -25 4 -25 46 0 38 -3 45 -17 42
-13 -2 -19 -14 -21 -41 -3 -29 -7 -37 -23 -37 -17 0 -19 7 -19 60 0 65 -2 63
71 64 11 0 14 7 11 23 -4 19 0 23 22 23 l26 0 0 -90z m518 2 c2 -68 0 -82 -13
-82 -12 0 -15 15 -15 86 0 64 3 85 13 82 8 -3 13 -32 15 -86z m-8220 58 c15
-1 15 -2 0 -14 -10 -7 -18 -23 -18 -34 0 -12 8 -26 18 -32 15 -9 14 -10 -8 -8
-20 3 -26 10 -31 43 -4 24 -3 45 4 54 8 9 12 10 15 2 2 -6 11 -11 20 -11z
m7526 10 c19 -7 26 -17 26 -37 0 -36 -9 -49 -42 -62 -15 -5 -28 -19 -30 -31
-2 -11 -7 -22 -13 -23 -6 -1 -11 32 -13 81 -3 81 -3 82 22 82 14 0 36 -4 50
-10z m634 -7 c2 -9 -8 -13 -30 -13 -42 0 -58 -15 -58 -55 0 -37 16 -55 47 -55
16 0 23 6 23 20 0 11 -7 20 -15 20 -8 0 -15 5 -15 10 0 6 14 10 30 10 28 0 30
-2 30 -39 0 -37 -2 -39 -36 -45 -66 -13 -104 33 -90 110 5 23 15 38 29 44 30
12 80 8 85 -7z m232 -7 c0 -19 4 -22 24 -19 17 4 28 -2 40 -18 19 -28 20 -49
5 -83 -10 -22 -18 -25 -56 -24 -39 2 -44 5 -39 23 3 11 6 48 6 83 0 34 4 62
10 62 6 0 10 -11 10 -24z m230 -55 c0 -44 -4 -82 -9 -86 -5 -3 -11 -2 -13 2
-8 17 4 163 13 163 5 0 9 -36 9 -79z m-8062 46 l22 -23 -25 -24 c-14 -13 -27
-21 -30 -18 -3 3 1 11 10 18 19 16 19 29 -2 52 -24 27 0 22 25 -5z m-1078 -32
c0 -25 -4 -45 -10 -45 -5 0 -10 20 -10 45 0 25 5 45 10 45 6 0 10 -20 10 -45z
m98 -2 c2 -26 -1 -43 -7 -43 -6 0 -11 16 -11 35 0 28 -4 35 -20 35 -16 0 -20
-7 -20 -35 0 -19 -4 -35 -10 -35 -5 0 -10 20 -10 44 l0 44 38 -1 c36 -2 37 -3
40 -44z m246 31 c19 -18 20 -28 6 -55 -20 -37 -80 -18 -80 26 0 42 44 59 74
29z m56 -58 c15 -15 40 14 40 45 0 16 5 29 10 29 6 0 10 -20 10 -43 l0 -44
-39 -1 c-38 -2 -39 -1 -43 39 -2 22 -1 42 2 45 3 3 6 -9 8 -28 2 -18 7 -37 12
-42z m318 27 c2 -26 -1 -43 -7 -43 -6 0 -11 16 -11 35 0 28 -4 35 -20 35 -16
0 -20 -7 -20 -35 0 -19 -4 -35 -10 -35 -5 0 -10 16 -10 36 0 49 -32 44 -41 -6
-6 -34 -6 -33 -8 11 l-1 46 63 -1 62 -1 3 -42z m86 41 c21 -8 22 -72 1 -80 -8
-4 -26 -3 -40 0 -19 5 -25 13 -25 34 0 43 25 61 64 46z m96 -4 c0 -4 -9 -10
-20 -13 -15 -4 -20 -14 -20 -36 0 -17 -4 -31 -10 -31 -5 0 -10 20 -10 43 0 42
1 44 30 45 17 0 30 -3 30 -8z m78 -2 c22 -22 13 -38 -19 -38 -20 0 -29 -4 -26
-12 2 -7 16 -12 31 -11 14 1 24 -2 21 -8 -9 -13 -49 -11 -63 3 -26 26 -7 78
28 78 9 0 21 -5 28 -12z m7367 -10 c6 1 22 4 37 8 23 5 28 2 33 -18 12 -45 2
-113 -17 -116 -14 -3 -17 6 -20 45 -4 62 -22 62 -26 1 -3 -40 -6 -48 -23 -48
-19 0 -24 17 -20 67 1 12 -3 24 -9 28 -6 4 -10 -4 -10 -19 0 -42 -18 -78 -38
-74 -9 2 -17 9 -16 16 1 6 2 34 3 61 1 46 3 50 29 54 15 2 36 2 47 -1 11 -3
25 -5 30 -4z m184 -14 c31 -39 27 -54 -15 -54 -24 0 -34 -4 -31 -12 2 -7 16
-12 31 -10 17 2 26 -2 26 -12 0 -16 -21 -26 -53 -26 -35 0 -47 14 -51 57 -8
76 50 111 93 57z m319 3 c51 -61 -9 -150 -70 -104 -46 35 -24 117 31 117 16 0
33 -6 39 -13z m229 1 c6 -7 13 -37 16 -65 l6 -53 -44 0 c-39 0 -45 3 -51 25
-8 32 11 55 43 55 15 0 23 5 20 13 -2 6 -16 11 -31 10 -25 -2 -33 7 -19 20 11
12 50 8 60 -5z m-131 -177 c-7 -10 -913 -7 -923 3 -4 3 204 6 461 6 278 0 465
-4 462 -9z m1511 -94 c44 -48 51 -94 24 -151 -61 -126 -251 -86 -251 53 0 90
61 145 150 137 35 -3 51 -11 77 -39z m-2147 0 c0 6 16 11 36 11 32 0 35 -2 29
-21 -4 -12 -9 -34 -12 -49 -7 -38 -33 -36 -33 1 0 17 -5 33 -11 36 -7 5 -8 -5
-4 -29 7 -37 -1 -46 -23 -24 -9 9 -12 9 -12 0 0 -22 -20 -12 -21 11 0 15 -2
17 -6 7 -8 -19 -23 -30 -45 -30 -15 0 -18 9 -18 50 0 46 2 50 24 50 14 0 32
-10 40 -22 16 -22 16 -22 16 -2 0 30 12 38 27 18 7 -10 13 -13 13 -7z m578 14
c8 -1 12 -18 12 -51 l0 -50 -41 0 c-29 0 -38 -4 -34 -12 4 -7 -3 -2 -14 11
-19 21 -25 20 -23 0 2 -9 -40 1 -55 14 -9 6 -13 6 -13 -2 0 -8 -24 -11 -77 -9
l-78 3 -6 35 -6 35 -2 -37 c-1 -30 -5 -38 -20 -38 -17 0 -19 5 -14 34 3 19 1
36 -6 40 -21 13 -11 26 19 26 17 0 30 -5 30 -11 0 -8 4 -8 13 -2 18 15 147 16
147 1 0 -9 3 -9 12 0 17 17 45 15 57 -5 9 -16 10 -16 11 -1 0 17 20 25 55 22
11 -1 26 -3 33 -3z m-782 -17 c-3 -9 -6 -31 -6 -50 0 -24 -5 -34 -15 -34 -10
0 -15 10 -15 34 0 19 -3 41 -6 50 -5 12 0 16 21 16 21 0 26 -4 21 -16z m63 2
c7 -8 11 -30 9 -48 -4 -44 -42 -53 -60 -14 -21 48 21 99 51 62z m290 -25 c16
-28 -14 -51 -36 -28 -13 13 -14 19 -3 31 17 21 27 20 39 -3z m-93 -151 c0 -44
-4 -70 -10 -70 -7 0 -11 27 -11 70 0 40 4 70 10 70 6 0 10 -31 11 -70z m73 40
l4 -25 6 25 c5 18 14 25 31 25 24 0 25 -3 28 -67 2 -67 2 -68 -24 -68 -18 0
-28 6 -32 22 l-5 22 -9 -23 c-5 -16 -14 -21 -30 -19 -21 3 -23 7 -19 63 1 33
5 64 8 68 10 16 38 1 42 -23z m207 2 c2 -32 14 -41 14 -9 0 14 5 29 10 32 6 4
10 -20 10 -65 0 -45 -4 -69 -10 -65 -5 3 -10 20 -10 37 0 17 -3 28 -7 24 -8
-8 -10 -13 -12 -43 -3 -45 -18 14 -20 81 -1 34 -16 6 -17 -32 -3 -59 -3 -62
-14 -62 -5 0 -10 25 -10 55 0 48 -2 55 -20 55 -25 0 -26 -25 -2 -39 16 -9 16
-10 0 -16 -10 -4 -18 -13 -18 -21 0 -7 8 -18 18 -23 9 -6 12 -11 5 -11 -6 0
-18 -3 -27 -6 -14 -5 -16 4 -16 66 l0 72 63 -4 c57 -3 62 -5 63 -26z m87 21
c4 -3 -1 -12 -11 -20 -16 -12 -16 -14 2 -28 11 -8 14 -15 8 -15 -7 0 -12 -9
-12 -20 0 -11 5 -20 10 -20 6 0 10 -7 10 -16 0 -10 -7 -14 -22 -12 -13 2 -22
6 -20 11 1 4 2 34 2 67 0 43 4 60 13 60 8 0 17 -3 20 -7z m75 -62 l0 -70 -29
1 c-29 1 -29 1 -29 63 0 68 3 75 35 75 21 0 22 -5 23 -69z m55 33 c-7 -18 -27
-13 -31 9 -2 11 2 14 17 10 12 -3 17 -11 14 -19z m-673 -14 c0 -11 7 -20 15
-20 8 0 15 6 15 14 0 8 5 18 12 22 8 5 9 2 5 -9 -3 -10 -2 -17 3 -17 6 0 10 5
10 11 0 20 23 3 25 -19 2 -23 -9 -29 -20 -12 -3 6 -12 10 -18 10 -7 0 -1 -10
13 -21 24 -20 24 -21 3 -16 -13 3 -23 1 -23 -4 0 -17 -29 -9 -40 10 -25 48
-30 71 -15 71 8 0 15 -9 15 -20z m709 -25 c-2 -25 -8 -45 -13 -44 -25 1 -41
15 -42 35 0 16 4 20 18 16 10 -2 18 -1 17 4 -3 19 2 34 11 34 7 0 10 -19 9
-45z m422 -91 c46 -8 118 -24 159 -34 41 -10 87 -21 103 -24 35 -8 34 -19 -4
-33 -27 -10 -50 -6 -185 32 -163 46 -174 51 -174 66 0 12 3 12 101 -7z m131
-163 c3 -3 -4 -19 -16 -34 l-22 -28 -72 36 c-68 35 -112 73 -112 100 0 9 35 0
108 -27 59 -22 110 -43 114 -47z m380 27 c17 -28 1 -31 -60 -12 -7 2 -24 -1
-38 -6 -16 -7 -31 -7 -38 -1 -6 5 -30 15 -54 22 -37 11 -40 14 -25 22 38 22
79 23 142 5 36 -9 68 -23 73 -30z m33 -13 c-3 -28 21 -34 44 -12 11 10 12 9 6
-2 -6 -10 -2 -12 14 -6 14 4 40 -4 81 -26 l61 -32 77 16 c95 21 92 21 92 -1 0
-23 -27 -49 -67 -62 l-30 -11 5 -69 c4 -54 1 -75 -12 -95 -15 -22 -15 -28 -2
-53 10 -19 11 -33 5 -44 -9 -16 -13 -15 -44 7 l-35 23 -64 -36 -63 -37 26 -16
c14 -9 32 -23 39 -31 11 -14 9 -19 -9 -32 -18 -12 -20 -18 -10 -30 10 -12 4
-19 -36 -42 l-47 -28 32 -10 32 -9 -47 -29 c-26 -17 -63 -32 -82 -34 l-36 -4
40 13 40 14 -75 12 c-109 17 -120 20 -120 31 0 6 -7 10 -16 10 -9 0 -46 15
-83 34 -36 19 -82 37 -101 40 -20 3 -43 15 -53 26 -21 25 -22 31 -2 24 25 -10
17 9 -19 47 -35 37 -56 92 -55 144 l1 30 9 -32 c5 -18 11 -33 14 -33 2 0 20 9
39 21 l35 20 -35 31 -35 31 28 22 27 23 52 -29 51 -29 74 31 c41 17 75 32 77
34 1 1 -23 13 -55 25 -32 13 -62 26 -67 31 -4 4 14 17 40 29 l49 21 78 -32 77
-32 63 18 c34 9 68 20 76 25 14 8 -115 60 -150 60 -10 0 -19 5 -19 10 0 17 29
23 44 11 10 -9 15 -8 20 4 3 8 3 22 0 30 -4 9 0 15 9 15 10 0 14 -8 12 -25z
m-315 -54 c0 -17 -70 -43 -97 -36 l-28 7 32 28 c29 26 36 28 63 19 16 -6 30
-14 30 -18z m-210 -76 c55 -40 56 -40 40 -68 -8 -15 -17 -27 -20 -27 -18 0
-91 90 -96 119 -8 39 -10 40 76 -24z m96 -676 c10 -17 -13 -36 -27 -22 -12 12
-4 33 11 33 5 0 12 -5 16 -11z m484 -75 c0 -43 -4 -74 -10 -74 -6 0 -10 34
-10 81 0 51 4 78 10 74 6 -3 10 -40 10 -81z m160 55 c0 -14 7 -19 25 -19 33 0
53 -39 39 -78 -8 -23 -15 -27 -47 -27 l-37 -1 0 79 c0 49 4 76 10 72 6 -3 10
-15 10 -26z m210 -49 c0 -47 -4 -80 -10 -80 -11 0 -14 142 -3 153 12 13 13 7
13 -73z m-1009 60 c12 -7 19 -21 19 -41 0 -25 -6 -33 -30 -42 -21 -8 -30 -18
-30 -34 0 -14 -6 -23 -15 -23 -12 0 -15 15 -15 75 0 74 0 75 26 75 14 0 34 -5
45 -10z m579 0 c16 -10 8 -13 -28 -10 -33 2 -52 -17 -52 -54 0 -38 15 -56 47
-56 16 0 23 6 23 20 0 11 -7 20 -15 20 -8 0 -15 5 -15 10 0 6 12 10 26 10 23
0 25 -3 22 -37 -3 -35 -6 -38 -36 -41 -46 -5 -72 20 -72 68 0 20 6 43 13 52
21 27 61 35 87 18z m-470 -40 c0 -11 -7 -20 -15 -20 -8 0 -16 -9 -16 -20 -1
-11 -3 -24 -4 -30 -1 -5 -3 -14 -4 -20 0 -5 -8 -10 -16 -10 -12 0 -15 13 -15
56 0 51 2 56 20 51 11 -3 23 -1 26 4 10 16 24 10 24 -11z m149 11 c10 -6 23
-6 31 -1 8 5 22 4 32 -1 23 -13 27 -109 4 -109 -10 0 -16 14 -18 43 -2 23 -7
42 -13 42 -5 0 -11 -19 -13 -42 -4 -58 -30 -59 -34 -1 -4 59 -28 63 -28 4 0
-39 -3 -46 -20 -46 -18 0 -20 7 -20 56 0 51 2 56 20 51 11 -3 23 -1 26 4 7 11
11 11 33 0z m193 -15 c18 -27 8 -46 -23 -46 -20 0 -29 -4 -26 -12 2 -8 16 -12
32 -10 19 2 26 -1 23 -10 -7 -20 -63 -22 -82 -3 -36 37 0 114 47 99 12 -4 25
-12 29 -18z m-292 -41 c0 -48 -2 -55 -20 -55 -18 0 -20 7 -20 55 0 48 2 55 20
55 18 0 20 -7 20 -55z m587 29 c15 -24 15 -29 2 -53 -29 -52 -89 -33 -89 29 0
54 57 69 87 24z m211 14 c7 -7 12 -31 12 -53 0 -41 -1 -42 -34 -43 -61 -2 -73
53 -15 65 44 8 36 29 -8 24 -7 -1 -13 3 -13 9 0 14 43 13 58 -2z m-646 -155
c-73 -2 -190 -2 -260 0 -70 1 -10 3 133 3 143 0 200 -2 127 -3z m561 0 c-79
-2 -207 -2 -285 0 -79 1 -15 3 142 3 157 0 221 -2 143 -3z m-163 -111 c-9 -37
-16 -51 -32 -56 -28 -7 -38 0 -38 29 0 28 25 56 44 49 8 -3 16 4 19 17 12 45
17 11 7 -39z m-621 -11 c-6 -28 -13 -51 -16 -51 -6 0 6 91 14 103 12 19 13 -4
2 -52z m151 32 c0 -2 -7 -12 -16 -20 -9 -9 -14 -26 -11 -40 2 -12 0 -23 -4
-23 -10 0 -12 83 -3 93 6 6 34 -2 34 -10z m315 7 c3 -6 -1 -17 -9 -26 -19 -19
-21 -50 -3 -57 7 -3 5 -6 -5 -6 -15 -1 -18 7 -18 42 0 24 3 47 7 50 9 10 21 9
28 -3z m-376 -29 c-1 -9 -5 -27 -9 -41 -7 -22 -8 -21 -9 13 -1 48 -21 45 -38
-4 -11 -32 -12 -32 -12 -7 -1 33 9 59 19 53 5 -3 11 -1 15 4 9 15 35 1 34 -18z
m120 -7 c-6 -8 -18 -14 -25 -14 -21 0 -17 -30 4 -31 11 0 12 -2 4 -6 -16 -6
-42 15 -42 33 0 8 9 23 21 35 16 16 23 18 35 8 11 -9 12 -15 3 -25z m52 7
c-12 -12 -21 -30 -21 -41 0 -11 -5 -20 -11 -20 -6 0 -8 9 -5 20 3 11 8 29 11
39 3 11 14 21 23 24 25 5 26 1 3 -22z m87 0 c-2 -9 -14 -17 -26 -19 -26 -4
-24 -28 2 -26 9 1 16 -3 16 -8 0 -5 -10 -8 -22 -6 -30 4 -38 56 -13 74 21 16
47 7 43 -15z m57 19 c3 -5 -1 -10 -9 -10 -21 0 -20 -10 1 -25 22 -16 10 -45
-19 -44 -17 1 -18 2 -5 6 21 6 21 12 1 35 -14 14 -14 20 -4 33 14 17 26 19 35
5z m124 -3 c12 -15 -3 -37 -26 -37 -18 0 -16 -28 2 -33 12 -4 12 -5 -1 -3 -30
2 -40 31 -21 60 20 29 30 32 46 13z m251 -25 c0 -15 -5 -34 -11 -42 -8 -11 -9
-6 -5 23 6 49 -18 51 -34 1 -15 -44 -25 -37 -16 10 5 25 13 36 29 38 31 6 37
1 37 -30z m-87 -4 c-3 -18 -10 -37 -16 -43 -6 -7 -8 -2 -3 15 3 14 6 33 6 43
0 9 4 17 10 17 5 0 7 -14 3 -32z m-386 -118 c-4 -15 0 -19 17 -17 16 1 22 -4
24 -24 4 -31 -26 -60 -55 -53 -19 5 -20 10 -11 47 4 23 11 48 13 55 7 20 18
14 12 -8z m299 -13 c20 8 28 -23 15 -60 l-11 -32 5 38 c5 47 -21 52 -37 6 -17
-48 -22 -25 -7 33 9 35 15 46 17 31 2 -14 8 -20 18 -16z m224 5 c0 -11 -9 -27
-20 -37 -24 -22 -27 -9 -4 17 16 16 15 18 -7 27 l-24 10 28 0 c20 1 27 -4 27
-17z m-779 -15 c8 -11 -2 -67 -12 -67 -5 0 -6 14 -2 30 4 20 2 30 -7 30 -6 0
-17 -13 -23 -30 -6 -16 -14 -30 -17 -30 -4 0 -5 14 -2 30 6 40 -16 39 -30 -1
-13 -38 -21 -31 -13 13 6 32 8 33 53 33 26 0 50 -3 53 -8z m77 -11 c3 -11 -4
-19 -18 -23 -22 -6 -22 -30 1 -25 10 3 11 0 3 -8 -16 -16 -44 -1 -44 23 0 24
29 59 44 54 6 -2 13 -11 14 -21z m78 13 c4 -6 11 -6 20 2 25 20 39 -4 27 -43
l-11 -33 -1 33 c-1 17 -5 32 -11 32 -5 0 -17 -15 -25 -32 l-15 -33 5 33 c6 43
-23 45 -31 2 -4 -16 -11 -30 -15 -30 -8 0 -6 27 6 65 4 14 43 17 51 4z m212
-13 c3 -11 -4 -19 -18 -23 -21 -6 -22 -30 -1 -25 6 1 11 -2 11 -8 0 -14 -23
-13 -38 2 -17 17 -15 38 5 60 19 21 37 19 41 -6z m53 -5 c-12 -12 -21 -28 -21
-36 0 -8 -4 -15 -9 -15 -6 0 -6 12 0 32 5 18 9 34 9 35 0 3 35 9 38 7 2 -1 -6
-12 -17 -23z m74 19 c3 -6 -4 -10 -16 -10 -21 0 -21 -1 -4 -20 9 -10 15 -26
12 -35 -7 -18 -33 -20 -43 -3 -4 7 -3 8 4 4 22 -14 34 5 16 25 -9 10 -14 25
-11 34 7 17 33 20 42 5z m121 -36 c-4 -20 -10 -34 -13 -30 -3 3 -2 21 1 42 4
20 10 34 13 30 3 -3 2 -21 -1 -42z m88 24 c15 -24 -19 -71 -45 -63 -15 5 -19
2 -19 -14 0 -12 -4 -21 -9 -21 -6 0 -6 13 -1 33 4 17 11 44 14 58 4 19 11 25
28 24 12 -1 26 -9 32 -17z m304 -500 l2 -198 -680 0 -680 0 0 193 c0 107 3
197 7 201 4 3 309 5 677 4 l671 -3 3 -197z"/>
<path d="M1566 4963 c-12 -12 -6 -43 9 -43 8 0 15 9 15 19 0 21 -13 34 -24 24z"/>
<path d="M3443 4954 c-8 -21 13 -42 28 -27 13 13 5 43 -11 43 -6 0 -13 -7 -17
-16z"/>
<path d="M3525 4960 c-3 -5 1 -10 9 -10 9 0 16 5 16 10 0 6 -4 10 -9 10 -6 0
-13 -4 -16 -10z"/>
<path d="M4833 4954 c-8 -21 13 -42 28 -27 13 13 5 43 -11 43 -6 0 -13 -7 -17
-16z"/>
<path d="M1480 4960 c0 -5 5 -10 11 -10 5 0 7 5 4 10 -3 6 -8 10 -11 10 -2 0
-4 -4 -4 -10z"/>
<path d="M2847 4983 c-4 -3 -7 -19 -7 -35 0 -23 4 -28 24 -28 16 0 27 7 31 20
10 32 -27 65 -48 43z"/>
<path d="M5085 4980 c-3 -5 3 -10 15 -10 12 0 18 5 15 10 -3 6 -10 10 -15 10
-5 0 -12 -4 -15 -10z"/>
<path d="M5083 4935 c0 -8 9 -15 19 -15 10 0 18 7 18 15 0 8 -8 15 -18 15 -10
0 -19 -7 -19 -15z"/>
<path d="M5490 4945 c0 -21 5 -25 31 -25 l32 0 -27 25 c-15 14 -29 25 -32 25
-2 0 -4 -11 -4 -25z"/>
<path d="M6454 4955 c-9 -22 5 -35 38 -35 l31 0 -27 25 c-31 29 -35 30 -42 10z"/>
<path d="M1647 4963 c-13 -12 -7 -43 7 -43 16 0 25 19 18 38 -5 13 -15 16 -25
5z"/>
<path d="M3245 4960 c-3 -5 1 -10 10 -10 9 0 13 5 10 10 -3 6 -8 10 -10 10 -2
0 -7 -4 -10 -10z"/>
<path d="M4630 4960 c0 -5 7 -10 16 -10 8 0 12 5 9 10 -3 6 -10 10 -16 10 -5
0 -9 -4 -9 -10z"/>
<path d="M4915 4960 c-3 -5 1 -10 9 -10 9 0 16 5 16 10 0 6 -4 10 -9 10 -6 0
-13 -4 -16 -10z"/>
<path d="M5175 4960 c-3 -5 1 -10 10 -10 9 0 13 5 10 10 -3 6 -8 10 -10 10 -2
0 -7 -4 -10 -10z"/>
<path d="M5330 4960 c0 -5 7 -10 16 -10 8 0 12 5 9 10 -3 6 -10 10 -16 10 -5
0 -9 -4 -9 -10z"/>
<path d="M6295 4960 c-3 -5 1 -10 9 -10 9 0 16 5 16 10 0 6 -4 10 -9 10 -6 0
-13 -4 -16 -10z"/>
<path d="M7576 4961 c-4 -5 -2 -12 3 -15 5 -4 12 -2 15 3 4 5 2 12 -3 15 -5 4
-12 2 -15 -3z"/>
<path d="M7570 4890 c0 -5 6 -10 14 -10 8 0 18 5 21 10 3 6 -3 10 -14 10 -12
0 -21 -4 -21 -10z"/>
<path d="M8735 4960 c-3 -5 1 -10 10 -10 9 0 13 5 10 10 -3 6 -8 10 -10 10 -2
0 -7 -4 -10 -10z"/>
<path d="M2314 3965 c-19 -19 -23 -31 -18 -48 10 -34 24 -47 50 -47 52 0 75
74 32 104 -30 21 -35 20 -64 -9z"/>
<path d="M2052 3974 c-25 -17 -31 -71 -10 -92 19 -19 66 -15 78 7 17 32 12 69
-12 85 -12 9 -25 16 -28 16 -3 0 -16 -7 -28 -16z"/>
<path d="M2583 3894 c-8 -23 12 -38 41 -30 39 10 36 46 -4 46 -19 0 -33 -6
-37 -16z"/>
<path d="M3696 3975 c-38 -39 -20 -105 29 -105 51 0 73 62 35 100 -24 24 -43
25 -64 5z"/>
<path d="M4390 3970 c-25 -25 -26 -62 -1 -84 26 -24 63 -17 78 14 16 34 7 65
-23 79 -32 14 -31 14 -54 -9z"/>
<path d="M5012 3974 c-25 -17 -31 -71 -10 -92 32 -32 88 -1 88 48 0 25 -29 60
-50 60 -3 0 -16 -7 -28 -16z"/>
<path d="M6254 3965 c-19 -19 -23 -31 -18 -48 10 -34 24 -47 50 -47 50 0 72
62 34 100 -26 26 -36 25 -66 -5z"/>
<path d="M6520 3970 c-11 -11 -20 -27 -20 -35 0 -18 35 -55 53 -55 24 0 57 31
57 55 0 24 -33 55 -57 55 -7 0 -22 -9 -33 -20z"/>
<path d="M6802 3978 c-22 -22 -13 -28 40 -28 50 0 51 0 33 20 -20 22 -55 26
-73 8z"/>
<path d="M7522 3978 c-21 -21 -13 -28 33 -28 25 0 45 4 45 8 0 15 -24 32 -45
32 -12 0 -26 -5 -33 -12z"/>
<path d="M10928 3682 c-27 -9 -48 -21 -48 -25 -1 -9 95 -77 109 -77 5 0 24 12
41 26 l31 27 -32 33 c-37 38 -37 38 -101 16z"/>
<path d="M10665 3585 c-58 -15 -105 -32 -105 -39 0 -5 166 -86 176 -86 21 0
153 65 146 72 -7 7 -167 71 -167 67 0 -1 -22 -7 -50 -14z"/>
<path d="M10348 3462 c-16 -9 -28 -19 -28 -22 2 -27 83 -80 124 -80 40 0 136
31 130 42 -11 17 -144 78 -171 78 -16 0 -40 -8 -55 -18z"/>
<path d="M10667 3326 c-10 -8 -38 -17 -62 -21 -25 -3 -45 -10 -45 -14 0 -8
113 -52 135 -53 24 -2 157 44 149 51 -10 9 -135 51 -150 51 -5 0 -17 -7 -27
-14z"/>
<path d="M2251 3546 c-7 -8 -11 -30 -9 -48 2 -28 7 -34 30 -36 22 -3 30 2 38
22 20 53 -27 101 -59 62z"/>
<path d="M1770 3580 c0 -27 3 -30 30 -30 18 0 33 7 38 18 15 27 3 42 -34 42
-31 0 -34 -3 -34 -30z"/>
<path d="M1770 3494 c0 -35 1 -35 38 -32 30 2 38 7 40 27 4 28 -12 41 -50 41
-25 0 -28 -3 -28 -36z"/>
<path d="M3090 3580 c0 -26 3 -30 29 -30 32 0 56 22 47 45 -3 9 -18 15 -41 15
-32 0 -35 -2 -35 -30z"/>
<path d="M3090 3495 c0 -33 2 -35 35 -35 24 0 37 6 45 19 13 26 -11 51 -51 51
-27 0 -29 -3 -29 -35z"/>
<path d="M2647 3553 c-13 -12 -7 -41 10 -47 21 -8 48 17 40 38 -6 16 -38 22
-50 9z"/>
<path d="M2641 3431 c-23 -15 -5 -41 29 -41 19 0 33 6 37 16 6 17 -12 34 -37
34 -8 0 -21 -4 -29 -9z"/>
<path d="M2878 3503 c-10 -2 -18 -13 -18 -24 0 -31 54 -22 58 9 3 22 -4 25
-40 15z"/>
<path d="M3267 3553 c-15 -15 -5 -23 29 -23 31 0 35 2 24 15 -13 16 -42 20
-53 8z"/>
<path d="M3610 3545 c-11 -13 -8 -15 25 -15 25 0 35 4 33 13 -7 18 -43 20 -58
2z"/>
<path d="M4630 3545 c-11 -13 -7 -15 25 -15 32 0 36 2 25 15 -7 8 -18 15 -25
15 -7 0 -18 -7 -25 -15z"/>
<path d="M5070 3541 c-24 -45 -2 -86 42 -79 18 2 24 10 26 36 2 18 -2 40 -9
48 -16 20 -46 17 -59 -5z"/>
<path d="M5227 3547 c-8 -22 17 -51 37 -44 25 10 17 51 -10 55 -12 2 -24 -3
-27 -11z"/>
<path d="M5225 3427 c-34 -26 11 -49 59 -31 32 12 12 44 -28 44 -7 0 -20 -6
-31 -13z"/>
<path d="M5380 3545 c-11 -13 -8 -15 25 -15 25 0 35 4 33 13 -7 18 -43 20 -58
2z"/>
<path d="M5801 3547 c-9 -12 -8 -16 3 -20 21 -8 57 4 53 17 -6 17 -42 19 -56
3z"/>
<path d="M2240 2945 c0 -29 27 -45 41 -24 14 22 6 44 -19 47 -18 3 -22 -1 -22
-23z"/>
<path d="M10100 2955 c0 -8 7 -15 15 -15 8 0 15 7 15 15 0 8 -7 15 -15 15 -8
0 -15 -7 -15 -15z"/>
<path d="M11017 2944 c-13 -14 -7 -65 9 -71 24 -9 38 11 27 43 -10 29 -24 40
-36 28z"/>
<path d="M2390 2946 c0 -32 18 -43 37 -23 20 20 10 47 -17 47 -15 0 -20 -7
-20 -24z"/>
<path d="M2862 2943 c2 -17 9 -28 18 -28 9 0 16 11 18 28 3 22 -1 27 -18 27
-17 0 -21 -5 -18 -27z"/>
<path d="M3030 2960 c0 -5 9 -10 20 -10 11 0 20 5 20 10 0 6 -9 10 -20 10 -11
0 -20 -4 -20 -10z"/>
<path d="M10585 2930 c3 -5 8 -10 11 -10 2 0 4 5 4 10 0 6 -5 10 -11 10 -5 0
-7 -4 -4 -10z"/>
<path d="M10891 2931 c-14 -25 -2 -63 18 -59 22 4 28 63 7 71 -9 4 -20 -1 -25
-12z"/>
<path d="M11130 2884 c0 -9 7 -14 17 -12 25 5 28 28 4 28 -12 0 -21 -6 -21
-16z"/>
<path d="M12428 2617 l22 -24 -20 -18 c-11 -10 -18 -20 -15 -23 3 -3 14 3 25
13 20 18 21 18 45 -5 14 -13 25 -19 25 -13 0 6 -7 16 -15 23 -19 16 -19 34 0
50 9 7 13 15 10 18 -3 3 -14 -3 -25 -13 -19 -17 -21 -17 -38 -2 -28 26 -39 20
-14 -6z"/>
<path d="M10310 2644 c0 -14 4 -23 10 -19 6 3 10 15 10 26 0 10 -4 19 -10 19
-5 0 -10 -12 -10 -26z"/>
<path d="M10686 2662 c-2 -4 -1 -14 5 -22 7 -12 9 -10 9 8 0 23 -5 28 -14 14z"/>
<path d="M10850 2651 c0 -12 5 -21 10 -21 6 0 10 6 10 14 0 8 -4 18 -10 21 -5
3 -10 -3 -10 -14z"/>
<path d="M10240 2644 c0 -14 4 -23 10 -19 6 3 10 15 10 26 0 10 -4 19 -10 19
-5 0 -10 -12 -10 -26z"/>
<path d="M10500 2528 c0 -18 5 -40 10 -48 7 -11 10 -2 10 33 0 26 -4 47 -10
47 -5 0 -10 -15 -10 -32z"/>
<path d="M10570 2513 c0 -24 2 -43 4 -43 8 0 12 60 4 72 -4 8 -8 -4 -8 -29z"/>
<path d="M10541 2504 c0 -11 3 -14 6 -6 3 7 2 16 -1 19 -3 4 -6 -2 -5 -13z"/>
<path d="M10870 2539 c0 -11 5 -17 10 -14 6 3 10 13 10 21 0 8 -4 14 -10 14
-5 0 -10 -9 -10 -21z"/>
<path d="M12102 2081 c-24 -9 -42 -21 -41 -27 2 -5 23 -22 47 -37 47 -30 68
-29 97 3 18 20 18 21 -10 50 -33 35 -35 35 -93 11z"/>
<path d="M11845 1994 c-38 -13 -73 -28 -79 -34 -5 -5 22 -24 74 -49 l83 -39
75 33 75 33 -79 40 -79 39 -70 -23z"/>
<path d="M11580 1889 c-24 -11 -46 -22 -49 -24 -7 -7 21 -35 65 -66 l42 -29
66 20 c36 11 67 24 70 29 4 6 -135 92 -147 91 -1 0 -22 -10 -47 -21z"/>
<path d="M11820 1748 c-36 -12 -67 -22 -69 -24 -8 -7 8 -16 70 -39 l63 -22 73
24 c40 14 73 28 73 32 0 6 -130 53 -141 50 -2 -1 -33 -10 -69 -21z"/>
<path d="M12193 1403 c-7 -3 -13 -20 -13 -40 0 -30 3 -34 23 -31 15 2 23 11
25 29 3 28 -15 49 -35 42z"/>
<path d="M11340 1410 c0 -13 5 -20 13 -17 6 2 12 10 12 17 0 7 -6 15 -12 18
-8 2 -13 -5 -13 -18z"/>
<path d="M11780 1390 c0 -5 7 -10 16 -10 8 0 12 5 9 10 -3 6 -10 10 -16 10 -5
0 -9 -4 -9 -10z"/>
<path d="M12070 1395 c-19 -22 -8 -60 18 -63 19 -3 22 1 22 31 0 38 -21 55
-40 32z"/>
<path d="M12285 1350 c-8 -12 20 -24 35 -15 5 3 10 10 10 16 0 12 -37 12 -45
-1z"/>
<path d="M12035 1130 c-3 -11 -3 -25 0 -30 10 -16 35 8 35 31 0 25 -27 24 -35
-1z"/>
<path d="M11645 1140 c-3 -5 1 -10 9 -10 9 0 16 5 16 10 0 6 -4 10 -9 10 -6 0
-13 -4 -16 -10z"/>
<path d="M11780 1140 c0 -5 5 -10 10 -10 6 0 10 5 10 10 0 6 -4 10 -10 10 -5
0 -10 -4 -10 -10z"/>
<path d="M11965 1140 c-3 -5 -2 -10 4 -10 5 0 13 5 16 10 3 6 2 10 -4 10 -5 0
-13 -4 -16 -10z"/>
<path d="M11770 961 c-7 -13 -7 -22 0 -26 15 -9 30 4 30 26 0 25 -16 25 -30 0z"/>
<path d="M11560 970 c0 -5 4 -10 9 -10 6 0 13 5 16 10 3 6 -1 10 -9 10 -9 0
-16 -4 -16 -10z"/>
<path d="M11850 970 c0 -5 4 -10 9 -10 6 0 13 5 16 10 3 6 -1 10 -9 10 -9 0
-16 -4 -16 -10z"/>
<path d="M12180 960 c-14 -26 -3 -45 16 -29 16 13 19 49 4 49 -5 0 -14 -9 -20
-20z"/>
<path d="M2555 1233 c-114 -9 -434 -60 -525 -84 -89 -24 -204 -97 -234 -149
l-20 -35 41 36 c114 102 191 126 581 178 123 17 227 33 232 36 18 11 10 25
-12 23 -13 -1 -41 -3 -63 -5z"/>
<path d="M3170 1150 c0 -16 5 -21 23 -18 12 2 22 10 22 18 0 8 -10 16 -22 18
-18 3 -23 -2 -23 -18z"/>
<path d="M3920 1055 c0 -70 4 -115 10 -115 6 0 10 45 10 115 0 70 -4 115 -10
115 -6 0 -10 -45 -10 -115z"/>
<path d="M4160 1055 c0 -70 4 -115 10 -115 6 0 10 5 10 12 0 9 3 9 12 0 7 -7
24 -12 40 -12 40 0 62 38 55 96 -6 55 -19 66 -69 60 l-38 -4 0 39 c0 21 -4 39
-10 39 -6 0 -10 -45 -10 -115z m104 -8 c10 -41 -7 -82 -37 -85 -21 -3 -29 2
-37 23 -15 39 -12 63 10 85 25 25 54 14 64 -23z"/>
<path d="M4490 1055 c0 -70 4 -115 10 -115 6 0 10 45 10 115 0 70 -4 115 -10
115 -6 0 -10 -45 -10 -115z"/>
<path d="M2870 1050 l0 -110 25 0 c23 0 25 4 25 40 0 36 3 40 25 40 33 0 65
33 65 68 0 48 -33 72 -99 72 l-41 0 0 -110z m85 40 c0 -16 -6 -26 -17 -28 -14
-3 -18 3 -18 28 0 25 4 31 18 28 11 -2 17 -12 17 -28z"/>
<path d="M3765 1151 c-50 -21 -72 -78 -55 -141 14 -53 45 -72 107 -68 l48 3 3
53 3 52 -35 0 c-39 0 -49 -17 -13 -22 17 -2 22 -10 22 -33 0 -27 -4 -30 -32
-33 -70 -7 -110 87 -63 148 15 21 27 25 65 24 29 -1 44 3 42 10 -4 14 -65 18
-92 7z"/>
<path d="M2515 1134 c-162 -25 -276 -46 -271 -52 3 -3 -4 -13 -16 -23 -11 -11
-16 -19 -10 -19 6 0 14 5 17 10 3 6 14 10 23 10 15 0 15 -2 2 -11 -12 -8 -10
-10 10 -6 14 3 88 15 165 28 141 22 185 37 185 64 0 8 -3 14 -7 14 -5 -1 -48
-7 -98 -15z"/>
<path d="M3040 1025 c0 -84 0 -85 25 -85 22 0 24 4 27 58 3 48 7 59 26 67 12
5 22 18 22 27 0 20 -13 23 -40 8 -13 -7 -21 -7 -25 0 -3 5 -13 10 -21 10 -11
0 -14 -18 -14 -85z"/>
<path d="M3170 1025 c0 -78 2 -85 20 -85 18 0 20 7 20 85 0 78 -2 85 -20 85
-18 0 -20 -7 -20 -85z"/>
<path d="M3254 1097 c-3 -8 -4 -45 -2 -83 3 -63 5 -69 26 -72 20 -3 22 0 22
46 0 63 7 82 31 82 17 0 19 -8 19 -65 0 -62 1 -65 25 -65 23 0 24 4 27 63 3
54 5 62 23 62 18 0 20 -8 23 -63 3 -59 5 -63 25 -60 19 3 22 10 25 61 2 41 -2
66 -13 83 -16 24 -48 31 -74 15 -7 -5 -25 -4 -42 3 -23 8 -34 7 -51 -3 -16
-10 -23 -10 -26 -2 -5 15 -32 14 -38 -2z"/>
<path d="M3555 1085 c-32 -32 -34 -96 -4 -126 27 -27 112 -24 117 5 3 16 0 18
-23 12 -34 -9 -65 1 -65 20 0 10 13 14 51 14 l52 0 -7 33 c-12 64 -77 87 -121
42z m59 -11 c25 -10 19 -34 -9 -34 -24 0 -34 18 -18 33 8 8 8 8 27 1z"/>
<path d="M4353 1100 c-33 -13 -28 -24 7 -17 19 4 34 1 45 -9 23 -23 19 -31
-21 -37 -44 -7 -64 -23 -64 -51 0 -29 18 -46 50 -46 14 0 31 5 38 12 9 9 12 9
12 0 0 -7 5 -12 10 -12 15 0 13 135 -2 148 -21 16 -52 21 -75 12z m67 -91 c0
-25 -22 -49 -45 -49 -20 0 -25 5 -25 24 0 13 6 27 13 29 22 10 57 7 57 -4z"/>
<path d="M3996 1078 c-37 -52 -3 -138 54 -138 57 0 91 86 54 138 -11 16 -25
22 -54 22 -29 0 -43 -6 -54 -22z m92 -47 c5 -63 -36 -95 -69 -55 -18 22 -15
85 6 100 31 23 60 2 63 -45z"/>
<path d="M4862 1053 l1 -48 4 43 c3 27 9 42 18 42 20 0 30 -21 14 -31 -9 -6
-10 -9 -2 -9 19 0 26 20 13 35 -7 8 -21 15 -31 15 -16 0 -19 -7 -17 -47z"/>
<path d="M5268 1093 c7 -3 16 -2 19 1 4 3 -2 6 -13 5 -11 0 -14 -3 -6 -6z"/>
<path d="M5333 1055 c0 -27 2 -38 4 -22 2 15 2 37 0 50 -2 12 -4 0 -4 -28z"/>
<path d="M5603 1055 c0 -27 2 -38 4 -22 2 15 2 37 0 50 -2 12 -4 0 -4 -28z"/>
<path d="M5812 1093 c12 -3 18 -17 21 -46 l4 -42 1 42 c2 30 7 43 20 46 9 3
-1 5 -23 5 -22 0 -32 -2 -23 -5z"/>
<path d="M5880 1055 c0 -27 2 -46 5 -43 8 8 9 77 2 85 -4 3 -7 -15 -7 -42z"/>
<path d="M6100 1093 c0 -7 5 -15 10 -18 15 -9 12 -35 -5 -35 -9 0 -12 6 -9 18
5 14 4 15 -5 2 -16 -23 -13 -30 12 -30 13 0 29 -6 36 -12 7 -8 6 2 -4 27 -18
43 -35 66 -35 48z"/>
<path d="M6918 1087 c-2 -7 -1 -28 3 -47 l6 -35 2 32 c0 17 5 33 10 35 5 2 3
8 -4 15 -10 9 -14 9 -17 0z"/>
<path d="M7016 1084 c-4 -9 -4 -19 -1 -22 3 -3 5 0 5 7 0 7 5 9 10 6 6 -3 10
-2 10 4 0 18 -18 21 -24 5z"/>
<path d="M7128 1055 c-2 -25 0 -45 4 -45 5 0 8 20 8 45 0 25 -2 45 -4 45 -2 0
-6 -20 -8 -45z"/>
<path d="M7778 1055 c-2 -25 0 -45 4 -45 5 0 8 20 8 45 0 25 -2 45 -4 45 -2 0
-6 -20 -8 -45z"/>
<path d="M7875 1090 c-3 -5 -1 -10 4 -10 6 0 11 5 11 10 0 6 -2 10 -4 10 -3 0
-8 -4 -11 -10z"/>
<path d="M8592 1053 l1 -48 4 42 c3 33 8 43 26 46 18 4 17 5 -5 6 -27 1 -28
-1 -26 -46z"/>
<path d="M9056 1084 c-3 -9 -4 -19 -1 -22 3 -3 5 1 5 9 0 11 2 11 10 -1 5 -8
10 -10 10 -5 0 6 -4 16 -9 23 -6 11 -10 10 -15 -4z"/>
<path d="M9111 1084 c0 -11 3 -14 6 -6 3 7 2 16 -1 19 -3 4 -6 -2 -5 -13z"/>
<path d="M10081 1084 c0 -11 3 -14 6 -6 3 7 2 16 -1 19 -3 4 -6 -2 -5 -13z"/>
<path d="M5234 1076 c-3 -8 -4 -23 -2 -33 3 -11 6 -6 9 15 6 34 2 42 -7 18z"/>
<path d="M4992 1060 c0 -14 2 -19 5 -12 2 6 2 18 0 25 -3 6 -5 1 -5 -13z"/>
<path d="M5057 1073 c6 -4 13 -22 16 -38 4 -27 5 -27 3 4 0 21 -7 36 -16 38
-10 3 -11 2 -3 -4z"/>
<path d="M5107 1073 c6 -4 13 -22 16 -38 4 -27 5 -27 3 4 0 21 -7 36 -16 38
-10 3 -11 2 -3 -4z"/>
<path d="M5162 1068 c-14 -14 -16 -44 -3 -52 4 -3 6 5 4 18 -6 31 16 45 34 21
7 -11 13 -14 13 -9 0 11 -20 34 -30 34 -3 0 -11 -5 -18 -12z"/>
<path d="M5372 1068 c-14 -14 -16 -44 -3 -52 5 -4 7 4 4 15 -4 15 0 27 12 35
11 8 14 14 9 14 -6 0 -15 -5 -22 -12z"/>
<path d="M5470 1076 c0 -2 7 -7 16 -10 8 -3 12 -2 9 4 -6 10 -25 14 -25 6z"/>
<path d="M5548 1073 c7 -3 16 -2 19 1 4 3 -2 6 -13 5 -11 0 -14 -3 -6 -6z"/>
<path d="M5922 1066 c7 -8 15 -12 17 -11 5 6 -10 25 -20 25 -5 0 -4 -6 3 -14z"/>
<path d="M5970 1065 c-6 -8 -10 -20 -7 -27 4 -8 6 -7 6 4 1 9 9 22 19 27 9 6
12 11 6 11 -6 0 -17 -7 -24 -15z"/>
<path d="M6164 1069 c-3 -6 -1 -16 5 -22 9 -9 11 -8 6 5 -4 11 0 18 12 21 15
4 16 5 1 6 -9 0 -20 -4 -24 -10z"/>
<path d="M6236 1071 c-4 -5 3 -7 14 -4 23 6 26 13 6 13 -8 0 -17 -4 -20 -9z"/>
<path d="M6300 1065 c-6 -8 -10 -20 -7 -27 4 -8 6 -7 6 4 1 9 9 22 19 27 9 6
12 11 6 11 -6 0 -17 -7 -24 -15z"/>
<path d="M6380 1065 c-6 -8 -10 -20 -7 -27 3 -8 6 -6 6 5 1 10 11 22 24 27 15
6 17 9 6 9 -9 1 -22 -6 -29 -14z"/>
<path d="M6443 1045 c0 -22 2 -30 4 -17 2 12 2 30 0 40 -3 9 -5 -1 -4 -23z"/>
<path d="M6490 1076 c0 -2 7 -7 16 -10 8 -3 12 -2 9 4 -6 10 -25 14 -25 6z"/>
<path d="M6549 1048 c5 -30 6 -31 9 -8 2 14 9 28 16 32 7 5 3 8 -10 8 -18 0
-20 -5 -15 -32z"/>
<path d="M6603 1045 c0 -22 2 -30 4 -17 2 12 2 30 0 40 -3 9 -5 -1 -4 -23z"/>
<path d="M6740 1076 c0 -2 7 -7 16 -10 8 -3 12 -2 9 4 -6 10 -25 14 -25 6z"/>
<path d="M7232 1060 c0 -14 2 -19 5 -12 2 6 2 18 0 25 -3 6 -5 1 -5 -13z"/>
<path d="M7412 1044 c-2 -19 -1 -34 2 -34 7 0 13 61 6 65 -3 2 -7 -12 -8 -31z"/>
<path d="M7590 1076 c0 -2 7 -7 16 -10 8 -3 12 -2 9 4 -6 10 -25 14 -25 6z"/>
<path d="M7946 1071 c-4 -5 3 -7 14 -4 23 6 26 13 6 13 -8 0 -17 -4 -20 -9z"/>
<path d="M8077 1073 c-3 -5 5 -8 18 -8 13 0 21 3 18 8 -2 4 -10 7 -18 7 -8 0
-16 -3 -18 -7z"/>
<path d="M8231 1041 c1 -36 1 -36 8 -6 8 40 38 46 44 8 4 -28 4 -28 3 2 -1 26
-5 30 -28 31 -26 1 -28 -2 -27 -35z"/>
<path d="M8318 1073 c7 -3 16 -2 19 1 4 3 -2 6 -13 5 -11 0 -14 -3 -6 -6z"/>
<path d="M8363 1045 c0 -22 2 -30 4 -17 2 12 2 30 0 40 -3 9 -5 -1 -4 -23z"/>
<path d="M8433 1069 c9 -5 18 -22 18 -37 2 -24 2 -25 6 -4 5 24 -12 52 -31 52
-6 0 -3 -5 7 -11z"/>
<path d="M8486 1071 c-4 -5 3 -7 14 -4 14 4 20 0 20 -12 0 -13 -6 -16 -21 -12
-16 4 -19 3 -11 -5 15 -15 38 -4 45 21 4 17 1 21 -18 21 -13 0 -26 -4 -29 -9z"/>
<path d="M8663 1045 c0 -22 2 -30 4 -17 2 12 2 30 0 40 -3 9 -5 -1 -4 -23z"/>
<path d="M8753 1045 c0 -22 2 -30 4 -17 2 12 2 30 0 40 -3 9 -5 -1 -4 -23z"/>
<path d="M8782 1074 c9 -3 19 -16 21 -30 4 -21 4 -21 3 3 -1 20 -7 28 -21 30
-14 1 -15 0 -3 -3z"/>
<path d="M8820 1076 c0 -2 7 -7 16 -10 8 -3 12 -2 9 4 -6 10 -25 14 -25 6z"/>
<path d="M9146 1071 c-3 -5 2 -7 13 -4 13 3 21 -1 25 -14 4 -16 5 -15 3 2 -2
21 -31 33 -41 16z"/>
<path d="M9273 1074 c14 -5 18 -13 15 -35 -3 -16 -1 -29 4 -29 5 0 8 15 6 32
-2 24 -8 33 -23 35 -17 2 -18 1 -2 -3z"/>
<path d="M9413 1069 c9 -6 15 -14 12 -20 -4 -5 -1 -9 4 -9 6 0 11 4 11 8 0 12
-22 32 -34 32 -6 0 -3 -5 7 -11z"/>
<path d="M9500 1076 c0 -2 9 -6 20 -9 11 -3 18 -1 14 4 -5 9 -34 13 -34 5z"/>
<path d="M9603 1069 c9 -5 18 -22 18 -37 2 -24 2 -25 6 -4 5 24 -12 52 -31 52
-6 0 -3 -5 7 -11z"/>
<path d="M10207 1059 c4 -13 8 -18 11 -10 2 7 -1 18 -6 23 -8 8 -9 4 -5 -13z"/>
<path d="M10413 1045 c0 -22 2 -30 4 -17 2 12 2 30 0 40 -3 9 -5 -1 -4 -23z"/>
<path d="M10448 1068 c5 -7 12 -22 15 -33 4 -16 5 -14 6 6 1 17 -5 29 -15 33
-13 5 -14 3 -6 -6z"/>
<path d="M10501 1064 c0 -11 3 -14 6 -6 3 7 2 16 -1 19 -3 4 -6 -2 -5 -13z"/>
<path d="M10543 1045 c0 -22 2 -30 4 -17 2 12 2 30 0 40 -3 9 -5 -1 -4 -23z"/>
<path d="M4942 1040 c0 -19 2 -27 5 -17 2 9 2 25 0 35 -3 9 -5 1 -5 -18z"/>
<path d="M5032 1040 c0 -19 2 -27 5 -17 2 9 2 25 0 35 -3 9 -5 1 -5 -18z"/>
<path d="M5409 1042 c-3 -20 -2 -29 4 -23 5 5 7 19 5 32 -3 20 -5 19 -9 -9z"/>
<path d="M6011 1054 c0 -11 3 -14 6 -6 3 7 2 16 -1 19 -3 4 -6 -2 -5 -13z"/>
<path d="M7652 1040 c0 -19 2 -27 5 -17 2 9 2 25 0 35 -3 9 -5 1 -5 -18z"/>
<path d="M7894 1058 c3 -12 0 -18 -9 -18 -8 0 -15 6 -15 13 0 8 -4 7 -10 -3
-15 -23 -12 -27 20 -22 33 5 35 9 19 32 -9 13 -10 12 -5 -2z"/>
<path d="M8402 1040 c0 -19 2 -27 5 -17 2 9 2 25 0 35 -3 9 -5 1 -5 -18z"/>
<path d="M9380 1046 c0 -14 4 -27 8 -30 5 -3 6 8 4 25 -5 35 -12 38 -12 5z"/>
<path d="M9572 1040 c0 -19 2 -27 5 -17 2 9 2 25 0 35 -3 9 -5 1 -5 -18z"/>
<path d="M9771 1054 c0 -11 3 -14 6 -6 3 7 2 16 -1 19 -3 4 -6 -2 -5 -13z"/>
<path d="M9851 1054 c0 -11 3 -14 6 -6 3 7 2 16 -1 19 -3 4 -6 -2 -5 -13z"/>
<path d="M10037 1063 c-9 -9 -9 -41 1 -46 4 -3 7 8 7 24 0 16 0 29 -1 29 0 0
-4 -3 -7 -7z"/>
<path d="M2045 1046 c-169 -48 -287 -130 -308 -213 -7 -29 -4 -29 30 5 56 56
195 126 333 167 50 15 68 24 55 28 -17 4 -16 5 5 7 24 2 24 3 -5 10 -40 10
-63 9 -110 -4z"/>
<path d="M5572 1035 c0 -16 2 -22 5 -12 2 9 2 23 0 30 -3 6 -5 -1 -5 -18z"/>
<path d="M6630 1041 c0 -11 4 -22 9 -25 4 -3 6 6 3 19 -5 30 -12 33 -12 6z"/>
<path d="M6678 1037 c-3 -19 -2 -25 4 -19 6 6 8 18 6 28 -3 14 -5 12 -10 -9z"/>
<path d="M6830 1041 c0 -11 4 -22 9 -25 4 -3 6 6 3 19 -5 30 -12 33 -12 6z"/>
<path d="M7040 1051 c0 -8 -7 -11 -19 -8 -19 5 -38 -19 -26 -31 3 -3 5 0 5 6
0 16 47 15 53 0 4 -9 6 -8 6 2 0 8 -4 22 -9 30 -8 12 -10 12 -10 1z"/>
<path d="M7080 1041 c0 -11 4 -22 9 -25 4 -3 6 6 3 19 -5 30 -12 33 -12 6z"/>
<path d="M7330 1041 c0 -11 4 -22 9 -25 4 -3 6 6 3 19 -5 30 -12 33 -12 6z"/>
<path d="M7378 1037 c-3 -19 -2 -25 4 -19 6 6 8 18 6 28 -3 14 -5 12 -10 -9z"/>
<path d="M7702 1035 c0 -16 2 -22 5 -12 2 9 2 23 0 30 -3 6 -5 -1 -5 -18z"/>
<path d="M7730 1041 c0 -11 4 -22 9 -25 4 -3 6 6 3 19 -5 30 -12 33 -12 6z"/>
<path d="M8000 1041 c0 -11 4 -22 9 -25 4 -3 6 6 3 19 -5 30 -12 33 -12 6z"/>
<path d="M10081 1044 c0 -11 3 -14 6 -6 3 7 2 16 -1 19 -3 4 -6 -2 -5 -13z"/>
<path d="M5672 1030 c0 -14 2 -19 5 -12 2 6 2 18 0 25 -3 6 -5 1 -5 -13z"/>
<path d="M6514 1031 c0 -11 4 -17 8 -15 4 3 8 12 8 20 0 8 -4 14 -8 14 -4 0
-8 -9 -8 -19z"/>
<path d="M9020 1038 c0 -23 17 -31 24 -12 4 9 4 19 1 22 -3 3 -5 -1 -5 -9 0
-11 -2 -11 -10 1 -8 13 -10 13 -10 -2z"/>
<path d="M9130 1039 c0 -5 5 -7 10 -4 6 3 10 8 10 11 0 2 -4 4 -10 4 -5 0 -10
-5 -10 -11z"/>
<path d="M9972 1030 c0 -14 2 -19 5 -12 2 6 2 18 0 25 -3 6 -5 1 -5 -13z"/>
<path d="M10282 1030 c0 -14 2 -19 5 -12 2 6 2 18 0 25 -3 6 -5 1 -5 -13z"/>
<path d="M10372 1030 c0 -14 2 -19 5 -12 2 6 2 18 0 25 -3 6 -5 1 -5 -13z"/>
<path d="M5520 1031 c0 -6 4 -13 10 -16 6 -3 7 1 4 9 -7 18 -14 21 -14 7z"/>
<path d="M5741 1024 c0 -11 3 -14 6 -6 3 7 2 16 -1 19 -3 4 -6 -2 -5 -13z"/>
<path d="M5931 1024 c0 -11 3 -14 6 -6 3 7 2 16 -1 19 -3 4 -6 -2 -5 -13z"/>
<path d="M6193 1025 c0 -8 4 -12 9 -9 5 3 6 10 3 15 -9 13 -12 11 -12 -6z"/>
<path d="M6471 1024 c0 -11 3 -14 6 -6 3 7 2 16 -1 19 -3 4 -6 -2 -5 -13z"/>
<path d="M6876 1023 c-6 -14 -5 -15 5 -6 7 7 10 15 7 18 -3 3 -9 -2 -12 -12z"/>
<path d="M7171 1033 c-1 -17 16 -25 25 -12 4 7 3 9 -4 5 -5 -3 -13 0 -15 6 -4
9 -6 10 -6 1z"/>
<path d="M7301 1024 c0 -11 3 -14 6 -6 3 7 2 16 -1 19 -3 4 -6 -2 -5 -13z"/>
<path d="M7571 1024 c0 -11 3 -14 6 -6 3 7 2 16 -1 19 -3 4 -6 -2 -5 -13z"/>
<path d="M8151 1024 c0 -11 3 -14 6 -6 3 7 2 16 -1 19 -3 4 -6 -2 -5 -13z"/>
<path d="M8911 1024 c0 -11 3 -14 6 -6 3 7 2 16 -1 19 -3 4 -6 -2 -5 -13z"/>
<path d="M9080 1031 c0 -6 4 -13 10 -16 6 -3 7 1 4 9 -7 18 -14 21 -14 7z"/>
<path d="M9491 1024 c0 -11 3 -14 6 -6 3 7 2 16 -1 19 -3 4 -6 -2 -5 -13z"/>
<path d="M9891 1024 c0 -11 3 -14 6 -6 3 7 2 16 -1 19 -3 4 -6 -2 -5 -13z"/>
<path d="M9931 1024 c0 -11 3 -14 6 -6 3 7 2 16 -1 19 -3 4 -6 -2 -5 -13z"/>
<path d="M10321 1024 c0 -11 3 -14 6 -6 3 7 2 16 -1 19 -3 4 -6 -2 -5 -13z"/>
<path d="M10591 1024 c0 -11 3 -14 6 -6 3 7 2 16 -1 19 -3 4 -6 -2 -5 -13z"/>
<path d="M7486 1017 c3 -10 9 -15 12 -12 3 3 0 11 -7 18 -10 9 -11 8 -5 -6z"/>
<path d="M8195 1020 c-3 -5 -1 -10 4 -10 6 0 11 5 11 10 0 6 -2 10 -4 10 -3 0
-8 -4 -11 -10z"/>
<path d="M8498 1013 c6 -2 18 -2 25 0 6 3 1 5 -13 5 -14 0 -19 -2 -12 -5z"/>
<path d="M7470 980 c-9 -6 -10 -10 -3 -10 6 0 15 5 18 10 8 12 4 12 -15 0z"/>
<path d="M8498 973 c7 -3 16 -2 19 1 4 3 -2 6 -13 5 -11 0 -14 -3 -6 -6z"/>
<path d="M6823 840 c0 -30 2 -43 4 -27 2 15 2 39 0 55 -2 15 -4 2 -4 -28z"/>
<path d="M7373 840 c0 -30 2 -43 4 -27 2 15 2 39 0 55 -2 15 -4 2 -4 -28z"/>
<path d="M7563 840 c0 -30 2 -43 4 -27 2 15 2 39 0 55 -2 15 -4 2 -4 -28z"/>
<path d="M7643 840 c0 -30 2 -43 4 -27 2 15 2 39 0 55 -2 15 -4 2 -4 -28z"/>
<path d="M8274 876 c-3 -8 -4 -31 -1 -52 4 -38 4 -37 5 8 1 26 7 49 15 51 9 4
9 6 -1 6 -7 1 -15 -5 -18 -13z"/>
<path d="M8628 840 c-1 -28 0 -50 5 -50 4 0 7 23 7 50 0 65 -7 65 -12 0z"/>
<path d="M9032 860 c0 -19 2 -27 5 -17 2 9 2 25 0 35 -3 9 -5 1 -5 -18z"/>
<path d="M9643 840 c0 -30 2 -43 4 -27 2 15 2 39 0 55 -2 15 -4 2 -4 -28z"/>
<path d="M9894 876 c-3 -8 -4 -31 -1 -52 4 -38 4 -37 5 8 1 26 7 49 15 51 9 4
9 6 -1 6 -7 1 -15 -5 -18 -13z"/>
<path d="M7123 873 c12 -3 16 -10 12 -21 -5 -13 -3 -14 6 -5 14 14 3 33 -19
32 -15 -1 -14 -2 1 -6z"/>
<path d="M7182 868 c-6 -6 -11 -23 -11 -37 1 -24 2 -24 8 4 7 34 37 46 45 18
4 -15 5 -15 3 2 -3 23 -27 31 -45 13z"/>
<path d="M7268 873 c7 -3 16 -2 19 1 4 3 -2 6 -13 5 -11 0 -14 -3 -6 -6z"/>
<path d="M10823 835 c0 -27 2 -38 4 -22 2 15 2 37 0 50 -2 12 -4 0 -4 -28z"/>
<path d="M10914 860 c0 -13 4 -16 10 -10 7 7 7 13 0 20 -6 6 -10 3 -10 -10z"/>
<path d="M4945 849 c-11 -16 -1 -19 13 -3 7 8 8 14 3 14 -5 0 -13 -5 -16 -11z"/>
<path d="M5014 849 c-3 -6 -1 -16 6 -22 10 -9 11 -9 5 2 -4 8 -2 17 6 22 9 6
10 9 2 9 -6 0 -15 -5 -19 -11z"/>
<path d="M5233 825 c0 -22 2 -30 4 -17 2 12 2 30 0 40 -3 9 -5 -1 -4 -23z"/>
<path d="M5296 853 c6 -4 14 -15 17 -23 5 -11 6 -9 4 4 -1 11 -9 21 -17 23
-10 3 -11 2 -4 -4z"/>
<path d="M5540 850 c0 -5 5 -10 11 -10 5 0 7 5 4 10 -3 6 -8 10 -11 10 -2 0
-4 -4 -4 -10z"/>
<path d="M5666 851 c-4 -5 3 -7 14 -4 23 6 26 13 6 13 -8 0 -17 -4 -20 -9z"/>
<path d="M5736 852 c-3 -5 5 -8 17 -8 17 1 22 -5 21 -22 0 -16 2 -20 10 -12 7
7 7 16 0 28 -13 19 -39 28 -48 14z"/>
<path d="M5847 849 c7 -7 15 -10 18 -7 3 3 -2 9 -12 12 -14 6 -15 5 -6 -5z"/>
<path d="M5887 853 c6 -4 13 -22 16 -38 4 -27 5 -27 3 4 0 21 -7 36 -16 38
-10 3 -11 2 -3 -4z"/>
<path d="M5978 842 c9 -10 19 -17 21 -16 6 5 -20 34 -30 34 -5 0 -1 -8 9 -18z"/>
<path d="M6073 825 c0 -22 2 -30 4 -17 2 12 2 30 0 40 -3 9 -5 -1 -4 -23z"/>
<path d="M6173 825 c0 -22 2 -30 4 -17 2 12 2 30 0 40 -3 9 -5 -1 -4 -23z"/>
<path d="M6324 841 c0 -11 4 -17 8 -15 4 3 8 12 8 20 0 8 -4 14 -8 14 -4 0 -8
-9 -8 -19z"/>
<path d="M6437 849 c7 -7 15 -10 18 -7 3 3 -2 9 -12 12 -14 6 -15 5 -6 -5z"/>
<path d="M6477 853 c6 -4 13 -22 16 -38 4 -27 5 -27 3 4 0 21 -7 36 -16 38
-10 3 -11 2 -3 -4z"/>
<path d="M6540 856 c0 -2 9 -6 20 -9 11 -3 18 -1 14 4 -5 9 -34 13 -34 5z"/>
<path d="M6857 853 c6 -4 13 -22 16 -38 4 -27 5 -27 3 4 0 21 -7 36 -16 38
-10 3 -11 2 -3 -4z"/>
<path d="M6928 853 c7 -3 16 -2 19 1 4 3 -2 6 -13 5 -11 0 -14 -3 -6 -6z"/>
<path d="M6983 825 c0 -22 2 -30 4 -17 2 12 2 30 0 40 -3 9 -5 -1 -4 -23z"/>
<path d="M7017 853 c6 -4 13 -22 16 -38 4 -27 5 -27 3 4 0 21 -7 36 -16 38
-10 3 -11 2 -3 -4z"/>
<path d="M7252 835 c0 -16 2 -22 5 -12 2 9 2 23 0 30 -3 6 -5 -1 -5 -18z"/>
<path d="M7299 828 c-3 -22 -1 -34 4 -29 5 5 7 21 5 37 -3 27 -4 26 -9 -8z"/>
<path d="M7453 825 c0 -22 2 -30 4 -17 2 12 2 30 0 40 -3 9 -5 -1 -4 -23z"/>
<path d="M7798 853 c7 -3 16 -2 19 1 4 3 -2 6 -13 5 -11 0 -14 -3 -6 -6z"/>
<path d="M7936 851 c-4 -5 3 -7 14 -4 23 6 26 13 6 13 -8 0 -17 -4 -20 -9z"/>
<path d="M8067 853 c-3 -5 5 -8 18 -8 13 0 21 3 18 8 -2 4 -10 7 -18 7 -8 0
-16 -3 -18 -7z"/>
<path d="M8135 849 c-4 -6 -5 -12 -2 -15 2 -3 7 2 10 11 7 17 1 20 -8 4z"/>
<path d="M8218 853 c7 -3 16 -2 19 1 4 3 -2 6 -13 5 -11 0 -14 -3 -6 -6z"/>
<path d="M8358 825 c-2 -19 0 -35 4 -35 4 0 8 16 8 35 0 19 -2 35 -4 35 -2 0
-6 -16 -8 -35z"/>
<path d="M8503 825 c0 -22 2 -30 4 -17 2 12 2 30 0 40 -3 9 -5 -1 -4 -23z"/>
<path d="M8587 853 c-10 -9 -9 -51 2 -57 4 -3 6 6 3 20 -3 16 1 30 9 35 8 5 9
9 3 9 -6 0 -14 -3 -17 -7z"/>
<path d="M8693 854 c27 -8 20 -27 -8 -22 -15 3 -25 1 -25 -7 0 -7 11 -10 31
-7 34 5 38 35 4 39 -16 1 -16 1 -2 -3z"/>
<path d="M8743 805 c0 -33 2 -45 4 -27 2 18 2 45 0 60 -2 15 -4 0 -4 -33z"/>
<path d="M8782 846 c7 -8 15 -12 17 -11 5 6 -10 25 -20 25 -5 0 -4 -6 3 -14z"/>
<path d="M8903 825 c0 -22 2 -30 4 -17 2 12 2 30 0 40 -3 9 -5 -1 -4 -23z"/>
<path d="M9072 848 c-22 -22 -14 -35 19 -30 21 3 29 9 27 21 -4 20 -30 25 -46
9z m38 -8 c0 -5 -9 -10 -21 -10 -11 0 -17 5 -14 10 3 6 13 10 21 10 8 0 14 -4
14 -10z"/>
<path d="M9140 826 c0 -20 2 -36 4 -36 8 0 12 61 4 66 -4 3 -8 -11 -8 -30z"/>
<path d="M9177 853 c6 -4 13 -22 16 -38 4 -27 5 -27 3 4 0 21 -7 36 -16 38
-10 3 -11 2 -3 -4z"/>
<path d="M9313 825 c0 -22 2 -30 4 -17 2 12 2 30 0 40 -3 9 -5 -1 -4 -23z"/>
<path d="M9342 854 c9 -3 19 -13 22 -22 3 -12 4 -12 3 3 -1 12 -10 21 -22 22
-15 1 -15 0 -3 -3z"/>
<path d="M9387 853 c6 -4 13 -22 16 -38 4 -27 5 -27 3 4 0 21 -7 36 -16 38
-10 3 -11 2 -3 -4z"/>
<path d="M9476 846 c5 -12 0 -16 -20 -16 -14 0 -26 -4 -26 -8 0 -5 14 -7 30
-4 29 4 40 25 20 37 -6 3 -7 -1 -4 -9z"/>
<path d="M9513 825 c0 -22 2 -30 4 -17 2 12 2 30 0 40 -3 9 -5 -1 -4 -23z"/>
<path d="M9547 853 c6 -4 13 -22 16 -38 4 -27 5 -27 3 4 0 21 -7 36 -16 38
-10 3 -11 2 -3 -4z"/>
<path d="M9673 854 c15 -5 18 -13 15 -35 -3 -18 -1 -26 5 -20 16 16 4 56 -18
58 -17 2 -18 1 -2 -3z"/>
<path d="M9756 845 c19 -14 19 -14 -3 -15 -12 0 -24 6 -26 13 -3 6 -6 0 -6
-15 -1 -15 3 -30 9 -33 6 -3 7 1 4 9 -5 12 0 16 20 16 14 0 26 4 26 8 0 11
-22 32 -34 32 -5 0 -1 -7 10 -15z"/>
<path d="M9932 830 c0 -19 2 -27 5 -17 2 9 2 25 0 35 -3 9 -5 1 -5 -18z"/>
<path d="M10020 826 c0 -20 2 -36 4 -36 8 0 12 61 4 66 -4 3 -8 -11 -8 -30z"/>
<path d="M10057 853 c6 -4 13 -22 16 -38 4 -27 5 -27 3 4 0 21 -7 36 -16 38
-10 3 -11 2 -3 -4z"/>
<path d="M10098 853 c7 -3 16 -2 19 1 4 3 -2 6 -13 5 -11 0 -14 -3 -6 -6z"/>
<path d="M10168 853 c7 -3 16 -2 19 1 4 3 -2 6 -13 5 -11 0 -14 -3 -6 -6z"/>
<path d="M10253 825 c0 -22 2 -30 4 -17 2 12 2 30 0 40 -3 9 -5 -1 -4 -23z"/>
<path d="M10322 846 c7 -8 15 -12 17 -11 5 6 -10 25 -20 25 -5 0 -4 -6 3 -14z"/>
<path d="M10420 856 c0 -2 9 -6 20 -9 11 -3 18 -1 14 4 -5 9 -34 13 -34 5z"/>
<path d="M10633 825 c0 -22 2 -30 4 -17 2 12 2 30 0 40 -3 9 -5 -1 -4 -23z"/>
<path d="M5161 834 c0 -11 3 -14 6 -6 3 7 2 16 -1 19 -3 4 -6 -2 -5 -13z"/>
<path d="M5812 820 c0 -19 2 -27 5 -17 2 9 2 25 0 35 -3 9 -5 1 -5 -18z"/>
<path d="M6660 828 c0 -15 4 -30 10 -33 6 -3 7 1 4 9 -5 12 0 16 20 16 14 0
26 4 26 9 0 5 -9 7 -21 4 -12 -4 -25 0 -30 8 -6 10 -9 7 -9 -13z"/>
<path d="M7480 845 c0 -5 5 -17 10 -25 5 -8 10 -10 10 -5 0 6 -5 17 -10 25 -5
8 -10 11 -10 5z"/>
<path d="M8194 841 c7 -11 46 -35 46 -28 0 3 -12 12 -26 22 -15 9 -23 12 -20
6z"/>
<path d="M8870 839 c0 -7 -10 -9 -25 -7 -15 3 -25 1 -25 -7 0 -7 11 -10 30 -7
17 2 30 10 30 18 0 8 -2 14 -5 14 -3 0 -5 -5 -5 -11z"/>
<path d="M8980 826 c0 -14 4 -27 8 -30 5 -3 6 8 4 25 -5 35 -12 38 -12 5z"/>
<path d="M9802 820 c0 -19 2 -27 5 -17 2 9 2 25 0 35 -3 9 -5 1 -5 -18z"/>
<path d="M9972 820 c0 -19 2 -27 5 -17 2 9 2 25 0 35 -3 9 -5 1 -5 -18z"/>
<path d="M10400 826 c0 -14 4 -27 8 -30 5 -3 6 8 4 25 -5 35 -12 38 -12 5z"/>
<path d="M10480 845 c0 -5 5 -17 10 -25 5 -8 10 -10 10 -5 0 6 -5 17 -10 25
-5 8 -10 11 -10 5z"/>
<path d="M10550 828 c0 -15 4 -30 10 -33 6 -3 7 1 4 9 -5 12 0 16 20 16 14 0
26 4 26 9 0 5 -9 7 -21 4 -12 -4 -25 0 -30 8 -6 10 -9 7 -9 -13z"/>
<path d="M5501 824 c0 -11 3 -14 6 -6 3 7 2 16 -1 19 -3 4 -6 -2 -5 -13z"/>
<path d="M5592 815 c0 -16 2 -22 5 -12 2 9 2 23 0 30 -3 6 -5 -1 -5 -18z"/>
<path d="M6520 821 c0 -11 4 -22 9 -25 4 -3 6 6 3 19 -5 30 -12 33 -12 6z"/>
<path d="M7422 820 c0 -14 2 -19 5 -12 2 6 2 18 0 25 -3 6 -5 1 -5 -13z"/>
<path d="M7612 815 c0 -16 2 -22 5 -12 2 9 2 23 0 30 -3 6 -5 -1 -5 -18z"/>
<path d="M7780 836 c0 -3 9 -10 20 -16 11 -6 20 -8 20 -6 0 3 -9 10 -20 16
-11 6 -20 8 -20 6z"/>
<path d="M7991 824 c0 -11 3 -14 6 -6 3 7 2 16 -1 19 -3 4 -6 -2 -5 -13z"/>
<path d="M8552 815 c0 -16 2 -22 5 -12 2 9 2 23 0 30 -3 6 -5 -1 -5 -18z"/>
<path d="M8952 815 c0 -16 2 -22 5 -12 2 9 2 23 0 30 -3 6 -5 -1 -5 -18z"/>
<path d="M10150 836 c0 -3 9 -10 20 -16 11 -6 20 -8 20 -6 0 3 -9 10 -20 16
-11 6 -20 8 -20 6z"/>
<path d="M6126 823 c6 -4 14 -15 17 -23 5 -11 6 -9 4 4 -1 11 -9 21 -17 23
-10 3 -11 2 -4 -4z"/>
<path d="M6292 817 c0 -7 -2 -21 -5 -32 -2 -11 -2 -14 0 -7 3 6 14 13 26 13
17 1 18 2 4 6 -9 2 -15 8 -12 13 3 5 2 11 -3 14 -5 3 -9 0 -10 -7z"/>
<path d="M6907 823 c-10 -9 -9 -33 1 -33 4 0 8 9 8 20 0 23 0 22 -9 13z"/>
<path d="M8073 823 c9 -2 23 -2 30 0 6 3 -1 5 -18 5 -16 0 -22 -2 -12 -5z"/>
<path d="M8310 816 c0 -8 4 -17 9 -20 5 -4 7 3 4 14 -6 23 -13 26 -13 6z"/>
<path d="M8461 814 c0 -11 3 -14 6 -6 3 7 2 16 -1 19 -3 4 -6 -2 -5 -13z"/>
<path d="M10917 811 c-4 -17 -3 -21 5 -13 5 5 8 16 6 23 -3 8 -7 3 -11 -10z"/>
<path d="M5040 812 c0 -6 -8 -13 -17 -15 -16 -4 -16 -5 -1 -6 18 -1 34 16 24
26 -3 4 -6 1 -6 -5z"/>
<path d="M5270 811 c0 -6 4 -13 10 -16 6 -3 7 1 4 9 -7 18 -14 21 -14 7z"/>
<path d="M7216 803 c-6 -14 -5 -15 5 -6 7 7 10 15 7 18 -3 3 -9 -2 -12 -12z"/>
<path d="M8166 803 c-6 -14 -5 -15 5 -6 7 7 10 15 7 18 -3 3 -9 -2 -12 -12z"/>
<path d="M8786 803 c-6 -14 -5 -15 5 -6 7 7 10 15 7 18 -3 3 -9 -2 -12 -12z"/>
<path d="M9026 805 c-3 -8 -1 -15 4 -15 6 0 10 7 10 15 0 8 -2 15 -4 15 -2 0
-6 -7 -10 -15z"/>
<path d="M10506 803 c-6 -14 -5 -15 5 -6 7 7 10 15 7 18 -3 3 -9 -2 -12 -12z"/>
<path d="M4960 800 c-9 -6 -10 -10 -3 -10 6 0 15 5 18 10 8 12 4 12 -15 0z"/>
<path d="M7690 800 c0 -5 5 -10 10 -10 6 0 10 5 10 10 0 6 -4 10 -10 10 -5 0
-10 -4 -10 -10z"/>
<path d="M7486 792 c-4 -6 3 -8 15 -5 12 4 25 0 31 -8 8 -12 9 -11 5 1 -4 17
-42 26 -51 12z"/>
<path d="M7488 758 c5 -5 16 -8 23 -6 8 3 3 7 -10 11 -17 4 -21 3 -13 -5z"/>
<path d="M3000 720 c0 -5 5 -10 10 -10 6 0 10 -25 10 -55 0 -30 5 -55 10 -55
6 0 10 25 10 55 0 30 5 55 10 55 6 0 10 5 10 10 0 6 -13 10 -30 10 -16 0 -30
-4 -30 -10z"/>
<path d="M3084 705 c-17 -26 -13 -67 8 -92 25 -30 68 1 68 48 0 66 -44 92 -76
44z m51 -39 c0 -44 -18 -58 -35 -27 -14 28 -2 73 19 69 11 -2 16 -14 16 -42z"/>
<path d="M3180 670 c0 -69 14 -83 55 -56 48 32 24 116 -33 116 -20 0 -22 -5
-22 -60z m48 28 c22 -22 8 -78 -20 -78 -4 0 -8 20 -8 45 0 46 7 54 28 33z"/>
<path d="M3294 703 c-3 -15 -10 -43 -15 -62 -10 -42 -4 -51 16 -25 15 19 15
19 30 0 23 -31 29 -12 13 50 -15 64 -34 80 -44 37z m26 -38 c0 -14 -4 -25 -10
-25 -11 0 -14 33 -3 43 11 11 13 8 13 -18z"/>
<path d="M3366 695 c7 -19 14 -48 14 -65 0 -16 5 -30 10 -30 6 0 10 14 10 30
0 17 7 46 14 65 9 22 11 35 5 35 -6 0 -13 -9 -16 -20 -3 -11 -9 -20 -13 -20
-4 0 -10 9 -13 20 -3 11 -10 20 -16 20 -6 0 -4 -13 5 -35z"/>
<path d="M3620 720 c0 -5 5 -10 10 -10 6 0 10 -22 10 -49 0 -28 5 -53 10 -56
6 -4 10 15 10 49 0 31 5 56 10 56 6 0 10 5 10 10 0 6 -13 10 -30 10 -16 0 -30
-4 -30 -10z"/>
<path d="M3712 718 c-27 -27 -6 -118 27 -118 23 0 45 31 45 63 0 56 -40 87
-72 55z m43 -54 c0 -28 -4 -39 -15 -39 -16 0 -26 45 -16 72 11 28 31 7 31 -33z"/>
<path d="M3806 684 c-8 -65 -8 -84 4 -84 6 0 10 15 10 33 0 17 5 39 10 47 7
11 10 6 10 -20 0 -19 5 -42 10 -50 7 -11 11 -4 16 29 7 46 24 39 24 -11 0 -16
5 -28 11 -28 8 0 10 13 5 38 -3 20 -6 49 -6 65 0 44 -28 33 -37 -15 l-9 -43
-7 43 c-10 58 -32 55 -41 -4z"/>
<path d="M3939 714 c-16 -19 -15 -79 1 -99 41 -49 92 35 60 96 -13 23 -43 25
-61 3z m46 -50 c0 -28 -4 -39 -15 -39 -16 0 -26 45 -16 72 11 28 31 7 31 -33z"/>
<path d="M4030 671 c0 -62 16 -92 22 -44 l4 28 12 -27 c6 -16 16 -28 22 -28
13 0 13 6 -1 32 -8 15 -8 26 1 44 16 29 -1 54 -36 54 -23 0 -24 -4 -24 -59z
m48 22 c-4 -22 -22 -20 -26 1 -2 10 3 16 13 16 10 0 15 -7 13 -17z"/>
<path d="M4120 664 c0 -41 4 -63 10 -59 6 3 10 16 11 28 1 20 2 19 12 -5 6
-16 14 -28 19 -28 11 0 10 17 -2 40 -7 13 -7 21 0 25 16 10 12 52 -6 59 -39
15 -44 8 -44 -60z m40 32 c0 -8 -4 -18 -10 -21 -5 -3 -10 3 -10 14 0 12 5 21
10 21 6 0 10 -6 10 -14z"/>
<path d="M4212 718 c-17 -17 -15 -84 4 -102 34 -34 64 -11 64 49 0 43 -13 65
-40 65 -9 0 -21 -5 -28 -12z m46 -50 c-4 -51 -31 -61 -36 -15 -4 37 4 57 23
57 13 0 15 -9 13 -42z"/>
<path d="M4305 688 c4 -24 12 -54 17 -68 10 -24 11 -24 18 -5 5 11 12 34 16
50 7 32 9 30 19 -27 8 -52 21 -47 34 12 14 63 14 80 1 80 -5 0 -10 -13 -10
-29 0 -43 -17 -47 -24 -6 -9 48 -21 44 -32 -12 l-10 -48 -8 48 c-5 26 -13 47
-18 47 -6 0 -7 -17 -3 -42z"/>
<path d="M3500 670 c0 -13 7 -20 20 -20 13 0 20 7 20 20 0 13 -7 20 -20 20
-13 0 -20 -7 -20 -20z"/>
<path d="M6000 625 c0 -27 2 -46 5 -43 8 8 9 77 2 85 -4 3 -7 -15 -7 -42z"/>
<path d="M8454 656 c-3 -8 -4 -31 -1 -52 4 -38 4 -37 5 8 1 26 7 49 15 51 9 4
9 6 -1 6 -7 1 -15 -5 -18 -13z"/>
<path d="M8884 656 c-3 -8 -4 -31 -1 -52 4 -38 4 -37 5 8 1 26 7 49 15 51 9 4
9 6 -1 6 -7 1 -15 -5 -18 -13z"/>
<path d="M9680 625 c0 -27 2 -46 5 -43 8 8 9 77 2 85 -4 3 -7 -15 -7 -42z"/>
<path d="M9934 656 c-3 -8 -4 -31 -1 -52 4 -38 4 -37 5 8 1 26 7 49 15 51 9 4
9 6 -1 6 -7 1 -15 -5 -18 -13z"/>
<path d="M10290 625 c0 -27 2 -46 5 -43 8 8 9 77 2 85 -4 3 -7 -15 -7 -42z"/>
<path d="M2485 651 c-3 -6 -40 -34 -81 -62 -66 -44 -74 -52 -62 -67 8 -10 9
-13 1 -9 -6 4 -14 4 -17 -1 -2 -4 3 -8 13 -9 25 -2 127 80 146 118 15 29 15
54 0 30z"/>
<path d="M5582 646 c7 -8 15 -12 17 -11 5 6 -10 25 -20 25 -5 0 -4 -6 3 -14z"/>
<path d="M6541 623 c-1 -23 3 -44 7 -47 4 -2 6 12 4 32 -5 56 -10 62 -11 15z"/>
<path d="M5174 616 c1 -26 6 -41 16 -43 10 -3 11 -2 3 4 -6 4 -13 24 -16 43
-4 34 -4 33 -3 -4z"/>
<path d="M6124 616 c1 -26 6 -41 16 -43 10 -3 11 -2 3 4 -6 4 -13 24 -16 43
-4 34 -4 33 -3 -4z"/>
<path d="M8364 616 c1 -26 6 -41 16 -43 10 -3 11 -2 3 4 -6 4 -13 24 -16 43
-4 34 -4 33 -3 -4z"/>
<path d="M10934 616 c1 -26 6 -41 16 -43 10 -3 11 -2 3 4 -6 4 -13 24 -16 43
-4 34 -4 33 -3 -4z"/>
<path d="M4860 629 c0 -5 5 -7 10 -4 6 3 10 8 10 11 0 2 -4 4 -10 4 -5 0 -10
-5 -10 -11z"/>
<path d="M4924 626 c-3 -8 -4 -23 -2 -33 3 -11 6 -6 9 15 6 34 2 42 -7 18z"/>
<path d="M4969 608 c4 -28 6 -29 9 -9 2 13 0 27 -5 32 -6 6 -7 -3 -4 -23z"/>
<path d="M5001 624 c0 -11 3 -14 6 -6 3 7 2 16 -1 19 -3 4 -6 -2 -5 -13z"/>
<path d="M5053 605 c0 -22 2 -30 4 -17 2 12 2 30 0 40 -3 9 -5 -1 -4 -23z"/>
<path d="M5090 605 c0 -19 2 -35 4 -35 2 0 6 16 8 35 2 19 0 35 -4 35 -4 0 -8
-16 -8 -35z"/>
<path d="M5139 602 c5 -34 6 -35 9 -8 2 16 0 32 -5 37 -5 5 -7 -7 -4 -29z"/>
<path d="M5223 605 c0 -22 2 -30 4 -17 2 12 2 30 0 40 -3 9 -5 -1 -4 -23z"/>
<path d="M5345 630 c3 -5 8 -10 11 -10 2 0 4 5 4 10 0 6 -5 10 -11 10 -5 0 -7
-4 -4 -10z"/>
<path d="M5521 620 c-2 -46 42 -67 70 -33 13 15 12 15 -7 3 -29 -18 -52 -7
-57 27 -4 27 -4 27 -6 3z"/>
<path d="M5713 605 c0 -22 2 -30 4 -17 2 12 2 30 0 40 -3 9 -5 -1 -4 -23z"/>
<path d="M5837 628 c-2 -7 -1 -22 4 -33 6 -16 8 -14 8 13 1 33 -4 41 -12 20z"/>
<path d="M5918 605 c2 -19 6 -35 8 -35 2 0 4 16 4 35 0 19 -4 35 -8 35 -4 0
-6 -16 -4 -35z"/>
<path d="M5969 602 c5 -34 6 -35 9 -8 2 16 0 32 -5 37 -5 5 -7 -7 -4 -29z"/>
<path d="M6046 627 c3 -10 9 -15 12 -12 3 3 0 11 -7 18 -10 9 -11 8 -5 -6z"/>
<path d="M6173 605 c0 -22 2 -30 4 -17 2 12 2 30 0 40 -3 9 -5 -1 -4 -23z"/>
<path d="M6204 625 c-3 -8 -4 -20 -2 -27 3 -7 7 -1 10 15 6 29 1 36 -8 12z"/>
<path d="M6280 603 c0 -43 5 -41 13 5 4 18 2 32 -3 32 -6 0 -10 -16 -10 -37z"/>
<path d="M6325 630 c3 -5 8 -10 11 -10 2 0 4 5 4 10 0 6 -5 10 -11 10 -5 0 -7
-4 -4 -10z"/>
<path d="M6435 630 c-3 -5 3 -15 15 -22 25 -16 25 -25 3 -31 -16 -4 -16 -5 -1
-6 26 -2 33 20 12 36 -10 8 -18 19 -16 24 3 12 -5 12 -13 -1z"/>
<path d="M6707 633 c-4 -3 -7 -18 -6 -32 0 -14 3 -20 6 -13 2 6 16 12 29 12
13 0 24 4 24 9 0 4 -12 6 -27 3 -21 -4 -25 -2 -20 12 7 17 5 20 -6 9z"/>
<path d="M6780 605 c0 -19 2 -35 4 -35 2 0 6 16 8 35 2 19 0 35 -4 35 -4 0 -8
-16 -8 -35z"/>
<path d="M6861 624 c0 -11 3 -14 6 -6 3 7 2 16 -1 19 -3 4 -6 -2 -5 -13z"/>
<path d="M7013 605 c0 -22 2 -30 4 -17 2 12 2 30 0 40 -3 9 -5 -1 -4 -23z"/>
<path d="M7107 624 c5 -14 2 -16 -20 -12 -17 3 -27 1 -27 -6 0 -17 21 -36 40
-35 9 0 5 5 -10 12 l-25 11 28 4 c26 3 37 25 17 37 -6 4 -7 -1 -3 -11z"/>
<path d="M7215 630 c3 -5 8 -10 11 -10 2 0 4 5 4 10 0 6 -5 10 -11 10 -5 0 -7
-4 -4 -10z"/>
<path d="M7287 633 c-4 -3 -7 -14 -7 -23 0 -13 6 -16 25 -12 31 5 41 20 26 35
-9 9 -11 8 -6 -5 6 -14 2 -18 -15 -18 -16 0 -20 4 -16 15 6 16 3 19 -7 8z"/>
<path d="M7535 620 c-8 -24 10 -50 34 -49 11 0 9 3 -6 9 -25 10 -30 29 -11 48
9 9 9 12 1 12 -7 0 -15 -9 -18 -20z"/>
<path d="M7604 611 c0 -21 7 -36 16 -38 10 -3 11 -2 3 4 -6 4 -13 22 -16 38
-4 27 -5 27 -3 -4z"/>
<path d="M7652 610 c0 -19 2 -27 5 -17 2 9 2 25 0 35 -3 9 -5 1 -5 -18z"/>
<path d="M7681 601 c1 -28 3 -30 6 -11 3 14 9 30 14 36 5 7 3 11 -6 11 -11 0
-15 -11 -14 -36z"/>
<path d="M7882 625 c-7 -8 -8 -15 -3 -15 5 0 12 -8 14 -17 3 -10 5 -3 6 15 1
36 1 37 -17 17z"/>
<path d="M8033 605 c0 -22 2 -30 4 -17 2 12 2 30 0 40 -3 9 -5 -1 -4 -23z"/>
<path d="M8283 605 c0 -22 2 -30 4 -17 2 12 2 30 0 40 -3 9 -5 -1 -4 -23z"/>
<path d="M8329 602 c5 -34 6 -35 9 -8 2 16 0 32 -5 37 -5 5 -7 -7 -4 -29z"/>
<path d="M8494 611 c0 -21 7 -36 16 -38 10 -3 11 -2 3 4 -6 4 -13 22 -16 38
-4 27 -5 27 -3 -4z"/>
<path d="M8543 605 c0 -22 2 -30 4 -17 2 12 2 30 0 40 -3 9 -5 -1 -4 -23z"/>
<path d="M8710 605 c0 -19 2 -35 4 -35 2 0 6 16 8 35 2 19 0 35 -4 35 -4 0 -8
-16 -8 -35z"/>
<path d="M8767 633 c-4 -3 -7 -14 -7 -23 0 -13 7 -16 30 -12 29 4 40 25 20 37
-6 3 -7 -1 -4 -9 4 -12 0 -16 -16 -16 -16 0 -20 4 -16 15 6 16 3 19 -7 8z"/>
<path d="M9003 605 c0 -22 2 -30 4 -17 2 12 2 30 0 40 -3 9 -5 -1 -4 -23z"/>
<path d="M9094 625 c-3 -8 -4 -20 -2 -27 3 -7 7 -1 10 15 6 29 1 36 -8 12z"/>
<path d="M9136 627 c3 -10 9 -15 12 -12 3 3 0 11 -7 18 -10 9 -11 8 -5 -6z"/>
<path d="M9172 615 c0 -16 2 -22 5 -12 2 9 2 23 0 30 -3 6 -5 -1 -5 -18z"/>
<path d="M9263 605 c0 -22 2 -30 4 -17 2 12 2 30 0 40 -3 9 -5 -1 -4 -23z"/>
<path d="M9350 605 c0 -19 2 -35 4 -35 2 0 6 16 8 35 2 19 0 35 -4 35 -4 0 -8
-16 -8 -35z"/>
<path d="M9396 628 c3 -5 10 -6 15 -3 13 9 11 12 -6 12 -8 0 -12 -4 -9 -9z"/>
<path d="M9517 624 c5 -14 2 -16 -20 -12 -17 3 -27 1 -27 -7 0 -7 11 -10 30
-7 29 4 40 25 20 37 -6 4 -7 -1 -3 -11z"/>
<path d="M9553 605 c0 -22 2 -30 4 -17 2 12 2 30 0 40 -3 9 -5 -1 -4 -23z"/>
<path d="M9598 603 c2 -18 5 -33 7 -33 2 0 5 15 7 33 2 20 -1 34 -7 34 -6 0
-9 -14 -7 -34z"/>
<path d="M9728 613 c5 -21 7 -23 10 -9 2 10 0 22 -6 28 -6 6 -7 0 -4 -19z"/>
<path d="M9767 633 c-4 -3 -7 -18 -6 -32 0 -14 3 -20 6 -13 2 6 13 12 23 12
10 0 21 4 24 9 3 4 -6 6 -21 3 -21 -4 -25 -2 -20 12 7 17 5 20 -6 9z"/>
<path d="M10015 629 c-4 -6 -5 -12 -2 -15 2 -3 7 2 10 11 7 17 1 20 -8 4z"/>
<path d="M10060 605 c0 -19 2 -35 4 -35 2 0 6 16 8 35 2 19 0 35 -4 35 -4 0
-8 -16 -8 -35z"/>
<path d="M10108 603 c2 -18 5 -33 7 -33 2 0 5 15 7 33 2 20 -1 34 -7 34 -6 0
-9 -14 -7 -34z"/>
<path d="M10339 608 c4 -28 6 -29 9 -9 2 13 0 27 -5 32 -6 6 -7 -3 -4 -23z"/>
<path d="M10589 608 c4 -28 6 -29 9 -9 2 13 0 27 -5 32 -6 6 -7 -3 -4 -23z"/>
<path d="M10620 605 c0 -19 2 -35 4 -35 2 0 6 16 8 35 2 19 0 35 -4 35 -4 0
-8 -16 -8 -35z"/>
<path d="M10669 602 c5 -34 6 -35 9 -8 2 16 0 32 -5 37 -5 5 -7 -7 -4 -29z"/>
<path d="M10710 629 c0 -5 5 -7 10 -4 6 3 10 8 10 11 0 2 -4 4 -10 4 -5 0 -10
-5 -10 -11z"/>
<path d="M10825 630 c3 -5 8 -10 11 -10 2 0 4 5 4 10 0 6 -5 10 -11 10 -5 0
-7 -4 -4 -10z"/>
<path d="M10865 620 c-8 -24 10 -50 34 -49 11 0 9 3 -6 9 -25 10 -30 29 -11
48 9 9 9 12 1 12 -7 0 -15 -9 -18 -20z"/>
<path d="M10983 605 c0 -22 2 -30 4 -17 2 12 2 30 0 40 -3 9 -5 -1 -4 -23z"/>
<path d="M5398 611 c26 -23 27 -28 7 -34 -12 -4 -11 -5 1 -3 28 2 27 22 -3 40
l-28 17 23 -20z"/>
<path d="M5881 614 c0 -11 3 -14 6 -6 3 7 2 16 -1 19 -3 4 -6 -2 -5 -13z"/>
<path d="M7408 611 c26 -23 27 -28 7 -34 -12 -4 -11 -5 1 -3 28 2 27 22 -3 40
l-28 17 23 -20z"/>
<path d="M8152 600 c0 -19 2 -27 5 -17 2 9 2 25 0 35 -3 9 -5 1 -5 -18z"/>
<path d="M9442 600 c0 -19 2 -27 5 -17 2 9 2 25 0 35 -3 9 -5 1 -5 -18z"/>
<path d="M10370 629 c0 -3 5 -21 12 -39 11 -33 11 -33 20 -10 5 12 6 25 3 28
-3 3 -5 -1 -5 -9 -1 -8 -7 -3 -15 11 -8 14 -14 22 -15 19z"/>
<path d="M6583 606 c3 -26 33 -44 48 -29 9 9 7 11 -9 6 -16 -4 -24 1 -32 18
-7 17 -9 19 -7 5z"/>
<path d="M6832 595 c0 -16 2 -22 5 -12 2 9 2 23 0 30 -3 6 -5 -1 -5 -18z"/>
<path d="M8971 604 c0 -11 3 -14 6 -6 3 7 2 16 -1 19 -3 4 -6 -2 -5 -13z"/>
<path d="M10471 604 c0 -11 3 -14 6 -6 3 7 2 16 -1 19 -3 4 -6 -2 -5 -13z"/>
<path d="M5323 603 c9 -2 23 -2 30 0 6 3 -1 5 -18 5 -16 0 -22 -2 -12 -5z"/>
<path d="M5803 596 c1 -11 9 -21 17 -23 10 -3 11 -2 4 4 -6 4 -14 15 -17 23
-5 11 -6 9 -4 -4z"/>
<path d="M7180 605 c0 -5 4 -16 9 -23 6 -11 10 -10 15 4 3 9 4 19 1 22 -3 3
-5 -1 -5 -9 0 -11 -2 -11 -10 1 -5 8 -10 11 -10 5z"/>
<path d="M7460 593 c0 -12 3 -14 8 -7 4 7 16 14 27 17 15 4 14 5 -7 6 -21 1
-28 -4 -28 -16z"/>
<path d="M7740 593 c0 -12 3 -14 8 -7 4 7 16 14 27 17 15 4 14 5 -7 6 -21 1
-28 -4 -28 -16z"/>
<path d="M7853 596 c1 -11 9 -21 17 -23 10 -3 11 -2 4 4 -6 4 -14 15 -17 23
-5 11 -6 9 -4 -4z"/>
<path d="M8205 600 c-8 -13 3 -30 18 -30 8 0 7 3 -2 9 -7 5 -10 14 -7 20 4 6
5 11 2 11 -3 0 -8 -4 -11 -10z"/>
<path d="M10803 603 c9 -2 23 -2 30 0 6 3 -1 5 -18 5 -16 0 -22 -2 -12 -5z"/>
<path d="M5003 590 c2 -8 12 -16 23 -17 13 -2 15 -1 4 4 -8 3 -19 11 -23 17
-6 7 -7 6 -4 -4z"/>
<path d="M6042 584 c-7 -8 -8 -14 -3 -14 10 0 25 19 20 25 -2 1 -10 -3 -17
-11z"/>
<path d="M8923 590 c2 -8 12 -16 23 -17 13 -2 15 -1 4 4 -8 3 -19 11 -23 17
-6 7 -7 6 -4 -4z"/>
<path d="M10543 590 c2 -8 12 -16 23 -17 13 -2 15 -1 4 4 -8 3 -19 11 -23 17
-6 7 -7 6 -4 -4z"/>
<path d="M4868 578 c5 -5 16 -8 23 -6 8 3 3 7 -10 11 -17 4 -21 3 -13 -5z"/>
<path d="M5318 578 c6 -6 18 -8 28 -6 14 3 12 5 -9 10 -19 3 -25 2 -19 -4z"/>
<path d="M5637 579 c7 -7 15 -10 18 -7 3 3 -2 9 -12 12 -14 6 -15 5 -6 -5z"/>
<path d="M6937 579 c7 -7 15 -10 18 -7 3 3 -2 9 -12 12 -14 6 -15 5 -6 -5z"/>
<path d="M7235 580 c3 -5 8 -10 11 -10 2 0 4 5 4 10 0 6 -5 10 -11 10 -5 0 -7
-4 -4 -10z"/>
<path d="M8100 580 c-9 -6 -10 -10 -3 -10 6 0 15 5 18 10 8 12 4 12 -15 0z"/>
<path d="M8580 580 c0 -5 5 -10 11 -10 5 0 7 5 4 10 -3 6 -8 10 -11 10 -2 0
-4 -4 -4 -10z"/>
<path d="M10798 578 c5 -5 16 -8 23 -6 8 3 3 7 -10 11 -17 4 -21 3 -13 -5z"/>
<path d="M6728 573 c7 -3 16 -2 19 1 4 3 -2 6 -13 5 -11 0 -14 -3 -6 -6z"/>
<path d="M6868 573 c7 -3 16 -2 19 1 4 3 -2 6 -13 5 -11 0 -14 -3 -6 -6z"/>
<path d="M7308 573 c7 -3 16 -2 19 1 4 3 -2 6 -13 5 -11 0 -14 -3 -6 -6z"/>
<path d="M8638 573 c7 -3 16 -2 19 1 4 3 -2 6 -13 5 -11 0 -14 -3 -6 -6z"/>
<path d="M8788 573 c7 -3 16 -2 19 1 4 3 -2 6 -13 5 -11 0 -14 -3 -6 -6z"/>
<path d="M9188 573 c7 -3 16 -2 19 1 4 3 -2 6 -13 5 -11 0 -14 -3 -6 -6z"/>
<path d="M9498 573 c7 -3 16 -2 19 1 4 3 -2 6 -13 5 -11 0 -14 -3 -6 -6z"/>
<path d="M10198 573 c7 -3 16 -2 19 1 4 3 -2 6 -13 5 -11 0 -14 -3 -6 -6z"/>
<path d="M10498 573 c7 -3 16 -2 19 1 4 3 -2 6 -13 5 -11 0 -14 -3 -6 -6z"/>
<path d="M3298 523 c7 -3 16 -2 19 1 4 3 -2 6 -13 5 -11 0 -14 -3 -6 -6z"/>
<path d="M4218 523 c7 -3 16 -2 19 1 4 3 -2 6 -13 5 -11 0 -14 -3 -6 -6z"/>
<path d="M1900 436 c5 -5 47 -11 92 -12 46 -2 74 -1 64 2 -11 4 -14 9 -8 13 5
3 -28 6 -74 7 -55 0 -81 -3 -74 -10z"/>
<path d="M5960 400 c0 -29 2 -51 5 -48 8 7 9 87 2 95 -4 3 -7 -18 -7 -47z"/>
<path d="M7040 400 c0 -29 2 -51 5 -48 8 7 9 87 2 95 -4 3 -7 -18 -7 -47z"/>
<path d="M7797 431 c-2 -10 -1 -24 3 -30 4 -7 7 1 8 18 1 35 -3 40 -11 12z"/>
<path d="M8343 405 c0 -27 2 -38 4 -22 2 15 2 37 0 50 -2 12 -4 0 -4 -28z"/>
<path d="M8569 438 c-3 -7 -2 -31 1 -53 l6 -40 5 43 c5 42 -4 77 -12 50z"/>
<path d="M9068 433 c-2 -10 -1 -31 3 -48 6 -26 7 -23 8 18 1 48 -3 61 -11 30z"/>
<path d="M9140 407 c0 -26 4 -47 8 -47 8 0 6 79 -3 88 -3 3 -5 -16 -5 -41z"/>
<path d="M10513 400 c0 -30 2 -43 4 -27 2 15 2 39 0 55 -2 15 -4 2 -4 -28z"/>
<path d="M2290 419 l-25 -20 25 7 c14 4 34 13 45 20 19 14 19 14 0 14 -11 0
-31 -10 -45 -21z"/>
<path d="M4858 434 c-10 -9 8 -77 20 -80 7 -1 8 0 2 3 -14 7 -13 60 2 65 8 3
6 6 -4 10 -9 4 -18 5 -20 2z"/>
<path d="M10382 392 c1 -40 2 -42 5 -12 3 19 9 38 15 41 5 4 3 9 -6 12 -13 5
-16 -2 -14 -41z"/>
<path d="M10458 434 c-10 -9 8 -77 20 -80 7 -1 8 0 2 3 -14 7 -13 60 2 65 8 3
6 6 -4 10 -9 4 -18 5 -20 2z"/>
<path d="M5147 420 c6 -8 13 -28 16 -45 l4 -30 2 31 c0 20 -6 37 -16 45 -16
12 -16 12 -6 -1z"/>
<path d="M5225 420 c4 -6 11 -8 16 -5 14 9 11 15 -7 15 -8 0 -12 -5 -9 -10z"/>
<path d="M5426 420 c7 -8 14 -24 17 -35 4 -19 5 -19 6 1 0 12 -7 28 -16 35
-16 12 -17 12 -7 -1z"/>
<path d="M5909 393 c3 -20 13 -38 21 -40 12 -4 13 -3 1 5 -8 6 -12 21 -9 41 3
20 0 31 -7 31 -8 0 -10 -12 -6 -37z"/>
<path d="M5997 420 c6 -8 13 -28 16 -45 l4 -30 2 31 c0 20 -6 37 -16 45 -16
12 -16 12 -6 -1z"/>
<path d="M6238 418 c11 -14 10 -17 -5 -21 -15 -4 -16 -5 -1 -6 9 0 19 -9 21
-18 3 -12 5 -9 6 8 0 15 -7 33 -16 40 -16 13 -17 12 -5 -3z"/>
<path d="M6716 420 c7 -8 14 -24 17 -35 4 -19 5 -19 6 1 0 12 -7 28 -16 35
-16 12 -17 12 -7 -1z"/>
<path d="M6992 393 c2 -22 9 -38 18 -40 12 -4 13 -3 1 5 -8 6 -12 21 -9 41 2
17 1 31 -4 31 -5 0 -8 -17 -6 -37z"/>
<path d="M7077 420 c6 -8 13 -28 16 -45 l4 -30 2 31 c0 20 -6 37 -16 45 -16
12 -16 12 -6 -1z"/>
<path d="M7237 419 c7 -7 15 -10 18 -7 3 3 -2 9 -12 12 -14 6 -15 5 -6 -5z"/>
<path d="M7690 426 c0 -2 7 -7 16 -10 8 -3 12 -2 9 4 -6 10 -25 14 -25 6z"/>
<path d="M7868 423 c7 -3 16 -2 19 1 4 3 -2 6 -13 5 -11 0 -14 -3 -6 -6z"/>
<path d="M8492 418 c-22 -22 -7 -68 22 -68 5 0 2 6 -8 13 -21 15 -18 52 4 52
8 0 18 -13 21 -30 6 -28 7 -28 8 -4 1 23 -14 49 -29 49 -3 0 -11 -5 -18 -12z"/>
<path d="M8645 420 c4 -6 11 -8 16 -5 14 9 11 15 -7 15 -8 0 -12 -5 -9 -10z"/>
<path d="M8902 393 c2 -20 9 -38 16 -39 7 -1 8 0 2 3 -14 7 -12 60 3 66 7 3 4
6 -6 6 -15 1 -18 -6 -15 -36z"/>
<path d="M9032 418 c-22 -22 -7 -69 23 -68 5 0 2 5 -7 11 -21 12 -23 40 -6 57
7 7 10 12 7 12 -3 0 -10 -5 -17 -12z"/>
<path d="M9575 420 c-3 -6 1 -7 9 -4 18 7 21 14 7 14 -6 0 -13 -4 -16 -10z"/>
<path d="M10602 418 c-7 -7 -11 -23 -11 -37 l2 -26 4 25 c3 14 10 31 15 38 13
15 6 16 -10 0z"/>
<path d="M10708 423 c7 -3 16 -2 19 1 4 3 -2 6 -13 5 -11 0 -14 -3 -6 -6z"/>
<path d="M10831 398 c2 -28 2 -29 6 -8 3 14 10 28 17 32 7 5 5 8 -6 8 -14 0
-18 -8 -17 -32z"/>
<path d="M4992 390 c0 -19 2 -27 5 -17 2 9 2 25 0 35 -3 9 -5 1 -5 -18z"/>
<path d="M5110 385 c0 -19 2 -35 4 -35 2 0 6 16 8 35 2 19 0 35 -4 35 -4 0 -8
-16 -8 -35z"/>
<path d="M5394 405 c-3 -8 -4 -20 -2 -27 3 -7 7 -1 10 15 6 29 1 36 -8 12z"/>
<path d="M5470 385 c0 -19 2 -35 4 -35 2 0 6 16 8 35 2 19 0 35 -4 35 -4 0 -8
-16 -8 -35z"/>
<path d="M5523 385 c0 -22 2 -30 4 -17 2 12 2 30 0 40 -3 9 -5 -1 -4 -23z"/>
<path d="M5702 405 c-7 -8 -8 -15 -3 -15 5 0 12 -10 14 -22 3 -14 5 -9 6 15 1
42 1 42 -17 22z"/>
<path d="M5792 390 c0 -19 2 -27 5 -17 2 9 2 25 0 35 -3 9 -5 1 -5 -18z"/>
<path d="M6044 405 c-3 -8 -4 -20 -2 -27 3 -7 7 -1 10 15 6 29 1 36 -8 12z"/>
<path d="M6120 385 c0 -19 2 -35 4 -35 2 0 6 16 8 35 2 19 0 35 -4 35 -4 0 -8
-16 -8 -35z"/>
<path d="M6280 385 c0 -19 2 -35 4 -35 2 0 6 16 8 35 2 19 0 35 -4 35 -4 0 -8
-16 -8 -35z"/>
<path d="M6681 368 c1 -55 5 -50 11 15 2 20 0 37 -4 37 -4 0 -7 -24 -7 -52z"/>
<path d="M6800 385 c0 -19 2 -35 4 -35 2 0 6 16 8 35 2 19 0 35 -4 35 -4 0 -8
-16 -8 -35z"/>
<path d="M6882 400 c1 -14 -2 -35 -6 -47 -4 -13 -2 -24 5 -29 7 -4 9 -3 5 4
-3 6 -2 21 3 34 4 12 5 32 0 43 -7 18 -8 17 -7 -5z"/>
<path d="M6921 404 c0 -11 3 -14 6 -6 3 7 2 16 -1 19 -3 4 -6 -2 -5 -13z"/>
<path d="M7124 405 c-3 -8 -4 -20 -2 -27 3 -7 7 -1 10 15 6 29 1 36 -8 12z"/>
<path d="M7200 385 c0 -19 2 -35 4 -35 2 0 6 16 8 35 2 19 0 35 -4 35 -4 0 -8
-16 -8 -35z"/>
<path d="M7401 404 c0 -11 3 -14 6 -6 3 7 2 16 -1 19 -3 4 -6 -2 -5 -13z"/>
<path d="M7557 399 c4 -15 0 -27 -12 -35 -11 -8 -14 -14 -9 -14 26 0 46 51 25
64 -5 4 -7 -4 -4 -15z"/>
<path d="M7630 410 c0 -5 -6 -10 -14 -10 -8 0 -17 -4 -20 -9 -4 -5 3 -7 13 -4
13 3 21 -1 24 -14 3 -10 5 -4 6 15 0 17 -1 32 -4 32 -3 0 -5 -4 -5 -10z"/>
<path d="M8041 404 c0 -11 3 -14 6 -6 3 7 2 16 -1 19 -3 4 -6 -2 -5 -13z"/>
<path d="M8113 385 c0 -22 2 -30 4 -17 2 12 2 30 0 40 -3 9 -5 -1 -4 -23z"/>
<path d="M8200 385 c0 -19 2 -35 4 -35 2 0 6 16 8 35 2 19 0 35 -4 35 -4 0 -8
-16 -8 -35z"/>
<path d="M8374 405 c-3 -8 -4 -20 -2 -27 3 -7 7 -1 10 15 6 29 1 36 -8 12z"/>
<path d="M8754 391 c0 -21 7 -36 16 -38 10 -3 11 -2 3 4 -6 4 -13 22 -16 38
-4 27 -5 27 -3 -4z"/>
<path d="M8830 411 c0 -6 4 -13 10 -16 6 -3 7 1 4 9 -7 18 -14 21 -14 7z"/>
<path d="M8986 407 c3 -10 9 -15 12 -12 3 3 0 11 -7 18 -10 9 -11 8 -5 -6z"/>
<path d="M9410 385 c0 -19 2 -35 4 -35 2 0 6 16 8 35 2 19 0 35 -4 35 -4 0 -8
-16 -8 -35z"/>
<path d="M9630 411 c0 -6 4 -13 10 -16 6 -3 7 1 4 9 -7 18 -14 21 -14 7z"/>
<path d="M9963 385 c0 -22 2 -30 4 -17 2 12 2 30 0 40 -3 9 -5 -1 -4 -23z"/>
<path d="M9990 411 c0 -6 4 -13 10 -16 6 -3 7 1 4 9 -7 18 -14 21 -14 7z"/>
<path d="M10105 392 c0 -22 -4 -27 -23 -26 -16 0 -20 -2 -12 -10 7 -7 16 -7
28 0 20 13 28 42 15 55 -5 5 -9 -3 -8 -19z"/>
<path d="M10143 385 c0 -22 2 -30 4 -17 2 12 2 30 0 40 -3 9 -5 -1 -4 -23z"/>
<path d="M10190 411 c0 -6 4 -13 10 -16 6 -3 7 1 4 9 -7 18 -14 21 -14 7z"/>
<path d="M10293 404 c-7 -19 7 -46 28 -52 8 -2 5 2 -5 10 -13 10 -17 22 -13
37 6 25 -1 28 -10 5z"/>
<path d="M10930 395 c0 -29 -27 -45 -42 -24 -8 12 -9 11 -5 -1 2 -8 16 -15 30
-16 24 -1 27 3 27 32 0 19 -2 34 -5 34 -3 0 -5 -11 -5 -25z"/>
<path d="M10963 385 c0 -22 2 -30 4 -17 2 12 2 30 0 40 -3 9 -5 -1 -4 -23z"/>
<path d="M6572 390 c0 -14 2 -19 5 -12 2 6 2 18 0 25 -3 6 -5 1 -5 -13z"/>
<path d="M7444 389 c0 -13 3 -15 13 -7 7 6 13 12 13 13 0 2 -6 5 -13 8 -7 3
-13 -3 -13 -14z"/>
<path d="M9492 390 c0 -14 2 -19 5 -12 2 6 2 18 0 25 -3 6 -5 1 -5 -13z"/>
<path d="M8253 386 c3 -26 33 -44 48 -29 9 9 7 11 -9 6 -16 -4 -24 1 -32 18
-7 17 -9 19 -7 5z"/>
<path d="M9758 393 c7 -3 16 -2 19 1 4 3 -2 6 -13 5 -11 0 -14 -3 -6 -6z"/>
<path d="M9890 394 c0 -6 7 -19 15 -30 8 -10 14 -14 14 -9 0 6 -6 19 -14 29
-8 11 -15 15 -15 10z"/>
<path d="M7292 370 c0 -14 2 -19 5 -12 2 6 2 18 0 25 -3 6 -5 1 -5 -13z"/>
<path d="M8653 376 c1 -11 9 -21 17 -23 10 -3 11 -2 4 4 -6 4 -14 15 -17 23
-5 11 -6 9 -4 -4z"/>
<path d="M8796 375 c-3 -8 -1 -15 4 -15 6 0 10 7 10 15 0 8 -2 15 -4 15 -2 0
-6 -7 -10 -15z"/>
<path d="M8866 377 c3 -10 9 -15 12 -12 3 3 0 11 -7 18 -10 9 -11 8 -5 -6z"/>
<path d="M9595 378 c4 -11 0 -18 -12 -21 -15 -4 -16 -5 -1 -6 22 -1 33 18 19
32 -9 9 -11 8 -6 -5z"/>
<path d="M9733 376 c1 -11 9 -21 17 -23 10 -3 11 -2 4 4 -6 4 -14 15 -17 23
-5 11 -6 9 -4 -4z"/>
<path d="M10225 378 c4 -11 0 -18 -12 -21 -15 -4 -16 -5 -1 -6 22 -1 33 18 19
32 -9 9 -11 8 -6 -5z"/>
<path d="M2138 373 c7 -3 16 -2 19 1 4 3 -2 6 -13 5 -11 0 -14 -3 -6 -6z"/>
<path d="M6203 370 c2 -8 12 -16 23 -17 13 -2 15 -1 4 4 -8 3 -19 11 -23 17
-6 7 -7 6 -4 -4z"/>
<path d="M7750 371 c0 -10 19 -25 25 -20 1 2 -3 10 -11 17 -8 7 -14 8 -14 3z"/>
<path d="M9182 364 c-7 -8 -8 -14 -3 -14 10 0 25 19 20 25 -2 1 -10 -3 -17
-11z"/>
<path d="M9810 371 c0 -10 19 -25 25 -20 1 2 -3 10 -11 17 -8 7 -14 8 -14 3z"/>
<path d="M5237 359 c7 -7 15 -10 18 -7 3 3 -2 9 -12 12 -14 6 -15 5 -6 -5z"/>
<path d="M5287 359 c7 -7 15 -10 18 -7 3 3 -2 9 -12 12 -14 6 -15 5 -6 -5z"/>
<path d="M5677 359 c7 -7 15 -10 18 -7 3 3 -2 9 -12 12 -14 6 -15 5 -6 -5z"/>
<path d="M5837 358 c2 -5 10 -8 18 -8 8 0 16 3 18 8 3 4 -5 7 -18 7 -13 0 -21
-3 -18 -7z"/>
<path d="M6377 359 c7 -7 15 -10 18 -7 3 3 -2 9 -12 12 -14 6 -15 5 -6 -5z"/>
<path d="M7597 359 c7 -7 15 -10 18 -7 3 3 -2 9 -12 12 -14 6 -15 5 -6 -5z"/>
<path d="M7877 359 c7 -7 15 -10 18 -7 3 3 -2 9 -12 12 -14 6 -15 5 -6 -5z"/>
<path d="M8958 358 c5 -5 16 -8 23 -6 8 3 3 7 -10 11 -17 4 -21 3 -13 -5z"/>
<path d="M9237 359 c7 -7 15 -10 18 -7 3 3 -2 9 -12 12 -14 6 -15 5 -6 -5z"/>
<path d="M9325 360 c-16 -7 -17 -9 -3 -9 9 -1 20 4 23 9 7 11 7 11 -20 0z"/>
<path d="M10757 359 c7 -7 15 -10 18 -7 3 3 -2 9 -12 12 -14 6 -15 5 -6 -5z"/>
<path d="M5018 353 c7 -3 16 -2 19 1 4 3 -2 6 -13 5 -11 0 -14 -3 -6 -6z"/>
<path d="M6068 353 c7 -3 16 -2 19 1 4 3 -2 6 -13 5 -11 0 -14 -3 -6 -6z"/>
<path d="M6598 353 c7 -3 16 -2 19 1 4 3 -2 6 -13 5 -11 0 -14 -3 -6 -6z"/>
<path d="M7148 353 c7 -3 16 -2 19 1 4 3 -2 6 -13 5 -11 0 -14 -3 -6 -6z"/>
<path d="M8398 353 c7 -3 16 -2 19 1 4 3 -2 6 -13 5 -11 0 -14 -3 -6 -6z"/>
<path d="M8838 353 c7 -3 16 -2 19 1 4 3 -2 6 -13 5 -11 0 -14 -3 -6 -6z"/>
<path d="M9518 353 c7 -3 16 -2 19 1 4 3 -2 6 -13 5 -11 0 -14 -3 -6 -6z"/>
<path d="M9638 353 c7 -3 16 -2 19 1 4 3 -2 6 -13 5 -11 0 -14 -3 -6 -6z"/>
<path d="M10618 353 c7 -3 16 -2 19 1 4 3 -2 6 -13 5 -11 0 -14 -3 -6 -6z"/>
</g>
</svg>
